<?xml version="1.0" encoding="UTF-8"?>
<!DOCTYPE svg PUBLIC "-//W3C//DTD SVG 1.1//EN" "http://www.w3.org/Graphics/SVG/1.1/DTD/svg11.dtd">
<!-- Creator: CorelDRAW 2020 (64-Bit) -->
<svg xmlns="http://www.w3.org/2000/svg" xml:space="preserve" width="463.937mm" height="136.217mm" version="1.1" style="shape-rendering:geometricPrecision; text-rendering:geometricPrecision; image-rendering:optimizeQuality; fill-rule:evenodd; clip-rule:evenodd"
viewBox="0 0 18643.87 5474.04"
 xmlns:xlink="http://www.w3.org/1999/xlink"
 xmlns:xodm="http://www.corel.com/coreldraw/odm/2003">
 <defs>
  <style type="text/css">
   <![CDATA[
    .fil0 {fill:#FEFEFE}
    .fil21 {fill:#3F3C3C}
    .fil17 {fill:#4A4747}
    .fil5 {fill:#936A22}
    .fil2 {fill:#9C6F1D}
    .fil3 {fill:#AB8D41}
    .fil6 {fill:#AF8048}
    .fil18 {fill:#B6852A}
    .fil10 {fill:#B6913D}
    .fil23 {fill:#B89C51}
    .fil14 {fill:#B9923D}
    .fil7 {fill:#BC9542}
    .fil13 {fill:#C89A48}
    .fil20 {fill:#C9A754}
    .fil12 {fill:#CBAE5D}
    .fil4 {fill:#D2B03D}
    .fil1 {fill:#D2B871}
    .fil19 {fill:#DBBC74}
    .fil16 {fill:#E7CB84}
    .fil22 {fill:#F2DB8D}
    .fil9 {fill:#F4DF9C}
    .fil15 {fill:#F9E499}
    .fil11 {fill:#F9EFAE}
    .fil8 {fill:#FCEEB3}
   ]]>
  </style>
 </defs>
 <g id="Layer_x0020_1">
  <metadata id="CorelCorpID_0Corel-Layer"/>
  <g id="_2390750994928">
   <path class="fil0" d="M10160.57 921.49l-42.53 0 0 198.48 184.3 0c-56.01,116.72 18.2,1261.22 -28.69,1388.99 -50.37,137.24 -185.02,-17.24 -127.25,255.52l666.31 0 0 -198.48 -170.12 0c40.85,-85.13 14.18,-645.26 14.18,-793.9 38.78,-10.35 425.3,-285.19 425.3,241 0,123.14 21.03,460.57 -32.82,534.25 -30.96,42.36 -66.19,33.74 -123.12,47 17.54,82.83 -3.37,87.3 14.18,170.12l666.31 0 0 -198.48 -155.94 0c0,-274.03 40.45,-779.6 -90.75,-972.51 -106.12,-156.03 -333.84,-179.83 -529.2,-101.1l-173.95 81.23 0 -723.02c-288.97,0 -187.83,70.88 -496.19,70.88z"/>
   <path class="fil0" d="M12230.39 2566c0,-92.25 -18.9,-737.97 16.93,-791.15 39.4,-58.46 251.79,-180.5 383.45,36.34 94.74,156.05 105.48,578.13 -48.73,723.68 -114.9,108.45 -213.52,63.3 -351.65,31.12zm0 -992.38l-16.6 -113c-223.03,-1.11 -80.91,23.69 -276.89,60.52 -64.38,12.1 -161.63,24.13 -245.23,24.13l0 198.48 184.3 0c-1.41,63.15 -14.85,99.54 -14.36,184.11l0.28 1049.37c1.56,288.79 -53.68,220.15 -156.04,269.26 0,35.59 -1.8,71.98 2.23,107.05 7.55,65.64 25.77,48.9 40.29,48.9l637.96 0 0 -198.48 -155.94 0 0 -439.48c256.19,59.68 450.23,76.8 670.23,-152.02 318.57,-331.33 223.18,-1166.42 -329.99,-1166.42 -166.24,0 -234.94,71.88 -340.24,127.59z"/>
   <path class="fil0" d="M5085.28 1601.98c16.6,71.27 40.95,111.44 61.95,179.05 21.72,69.89 38.39,129.66 54.61,200.57 161.82,707.31 -69.6,1441.46 -566.4,1935 -87.5,86.93 -172.15,143.98 -255.51,212.32l-145.82 95.18c-148.25,85.41 -313.61,164.14 -487.17,207.49 -222.9,55.67 -164.95,4.83 -177.27,204.39 -4.86,78.7 -15.48,111.34 -15.48,184.11 73.25,-17.06 143.72,-28.68 221.34,-48.02 79.85,-19.89 138.67,-41.31 205.77,-63.59 403.46,-133.94 764.8,-398.57 1037.34,-720.58 27.59,-32.6 42.4,-40.6 66.82,-74.94 345.69,-486.03 496,-882.57 496,-1531.28 0,-307 -61.98,-579.4 -166.04,-840.52 -29.59,-74.24 -89.07,-175.76 -103.32,-236.92l-28.36 0c-19.87,85.28 -80.77,168.67 -135.52,233.08 -35.95,42.3 -37.18,29.45 -62.96,64.63z"/>
   <path class="fil0" d="M1753.74 4366.45c8.19,-98.38 83,-231.12 127.59,-297.72 -43.39,-64.79 -134.51,-114.17 -208.47,-202.65l-188.63 -236.67c-201.62,-283.94 -355.11,-639.94 -368.87,-1050.12 -11.39,-339.71 11.17,-576.92 134,-900.45 78.29,-206.21 181.21,-373.54 311.9,-538.71 36.28,-45.86 181.05,-237.81 194.49,-288.16 -91.97,7.65 -249.16,-26.16 -374.27,-9.2 -72.41,24.05 -397.53,599.54 -433.78,690.36 -124.75,312.59 -171.23,533.53 -176.47,893.22 -0.29,20.01 4.42,92.85 4.14,139.76 -2.39,387.91 179.68,851.28 374.66,1170.7 98.37,161.15 285.87,372.01 422.79,498.7 37.28,34.5 132.94,118.14 180.93,130.96z"/>
   <path class="fil0" d="M5950.07 1034.91c0,192.85 -14.18,332.97 -14.18,524.54l184.3 0c0,-305.79 105.16,-396.95 411.13,-396.95l0 1247.56c0,237.51 -184.3,123.07 -184.3,212.65 0,101.61 -13.99,141.77 42.53,141.77l708.84 0 0 -198.48 -198.48 0c0,-108.15 14.18,-158.09 14.18,-269.36l0 -1134.14c277.22,0 411.12,57.04 411.12,396.95l184.3 0 -14.18 -567.07 -1545.27 0 0 42.53z"/>
   <path class="fil1" d="M2221.57 3260.73c-77.02,107.98 5.47,499.55 -31.79,634.46 -15.44,55.91 -113.74,120.59 -154.75,171.32 -33.99,42.05 -109.81,143.25 -125.35,193.33 14.54,32.2 -8.14,71.33 -8.34,119.89 31.09,30.76 36.81,43.16 42.89,93.94 41.38,-69.53 -12.77,-30.59 56.52,-35.57l118.11 0.79c25.32,4.83 38.51,3.85 74.35,-1.48 32.45,-16.13 -12.35,25.61 15.18,-16.06 7.57,-11.46 10.17,-17.87 18.33,-34.69 15.31,-31.55 24.23,-51.78 34.4,-76.91 41.54,-128.89 259.31,-245.79 459.31,-233.37 226.92,14.09 340.85,143.54 423.33,291.82 3.23,2.93 6.99,3.83 8.47,9.99 1.45,6.02 6.26,7.45 8.23,9.82l44.32 45.21c56.89,27.68 -3.63,2.89 40.26,2.43l107.92 -7.24c1.32,-1.49 4.1,-6.37 6.65,-9.15l17.86 58.88c18.28,-35.21 35.57,-20.35 67.02,-34.9l38.81 -34.19c-32.97,-230.43 -179.52,-351.46 -259.78,-449.13 -42.45,-51.66 -23.76,-94.29 -23.76,-217.25l692.46 -471.07c46.7,-48.52 25.9,-19.45 16.38,-53.4 -48.79,-9.74 -62.45,12.18 -100.18,38.64 -31.18,21.87 -65.73,41.86 -98.23,60.6l-534.23 381.65c-31.14,14.86 -3.93,-19.7 -95.53,-1.76l-55.26 12.2c2.05,-4.34 5.41,-9.17 7.29,-12.41 52.28,-89.89 31.6,-53.08 -10.01,-38.47l-42.35 2.48c-0.96,-0.07 -4.85,-0.37 -5.8,-0.44 -0.97,-0.07 -4.97,-0.37 -5.9,-0.43 -0.92,-0.06 -5,-0.35 -5.83,-0.39 -35.26,-2.03 15.71,-18.62 -16.16,-0.41 -0.37,0.35 -43.21,105.17 -64.33,32.48 -6.77,94.2 -17.98,56.75 -28.07,56.25l-8.74 -189.8c-91.09,37.09 -70.48,57.94 -65.93,153.08 1.78,37.32 17.78,40.35 -45.39,46.29 -28.55,2.68 -83.74,-0.89 -115.43,-0.89 0,-134.61 -42.11,-259.96 9.53,-316.53l336.5 -230.58c76.11,-52.74 291.01,-217.23 348.63,-232.62l14.18 -84.99c-83.81,40.72 -332.9,224.3 -445.2,303.5 -135.32,95.44 -148.69,125.26 -233.26,118.65 -45.32,-3.54 34.06,-14.39 -20.78,3.52l-38.14 8.23c-0.73,-0.02 -4.17,-0.32 -4.9,-0.36l-65.14 -7.67c-77.33,-17.54 -158.58,-16.63 -235.21,13.22 -2.96,1.15 -10.07,9.03 -12.28,5.46 -2.33,-3.78 -8.37,4.57 -12.89,5.98 -3.7,-69.47 11.46,-53.54 -38,-81.92z"/>
   <path class="fil2" d="M1470.27 708.84c34.27,-10.46 58.54,-12.83 101.06,-9.4 40.15,3.24 18.52,0.1 71.11,-3.18 70.54,-4.4 361.54,17.58 456.58,4.66 227.3,-30.9 652.34,-6.25 902.28,-6.25 0,84.86 17.36,64.33 -42.53,70.88 0,47.02 1.31,95.93 -0.02,142.72l-1.19 126.92c4.96,93.65 4.88,218.71 0.95,312.67 -12.5,298.83 -25.2,735.35 -11.04,1001.31 5.32,99.91 12.06,295.69 -2.87,383.9l74.99 -34.76 -1.02 -178.03 2.65 -316.09 5.17 -660.19 4.05 -613.49c15.62,25.17 28.54,47.11 48.02,69.77l50.53 -16c65.53,-11.42 41.6,-11.46 52.86,14.29 0.76,1.75 2.4,6.35 2.8,8.33 16.01,79.41 -0.15,28.5 -7.84,36.79 50.14,-27.87 -36.05,-12.71 33.48,-22.73 35.54,-5.12 19.65,53.4 9.5,4.41 42.52,-15.41 -13.58,27.25 12.47,-27.45l115.57 -54.36c-3.77,46.12 1.3,21.84 -11.31,55.14 -38.18,100.88 22.29,-28.22 -23.51,40.62 -1.54,2.32 -4.91,6.17 -7.11,9.43 51.98,-11.08 18.9,38.79 64.01,47.21 0,-77.2 -0.32,-154.43 -0.24,-231.62l0.24 -538.29 -1801.6 0 -76.64 24.65c-13.45,51.17 -7.53,145.33 -6.62,184.31 0.88,37.98 1.54,55.09 1.39,85.11 -0.26,55.17 -3.44,31.09 -16.15,88.71z"/>
   <path class="fil0" d="M8090.76 1644.51l85.06 0c96.54,0 155.94,116.56 155.94,212.65l0 56.71 -439.48 0c2.56,-114.69 88.59,-269.36 198.48,-269.36zm28.36 1162.5c299.46,0 581.25,-227.64 581.25,-311.89 0,-41.53 -82.12,-92.46 -113.42,-113.41 -118.59,177.1 -593.81,348.68 -698.37,-95.53 -13.17,-55.96 -1.81,-140.41 -24.65,-188.01l836.43 -14.18c0,-746.93 -735.98,-756.62 -1031.58,-436.16 -102.79,111.44 -175.48,269.81 -177.82,480.76 -4.27,385.27 229.39,678.41 628.15,678.41z"/>
   <path class="fil0" d="M8842.13 2154.87c0,74.05 24.99,205.5 48.07,263.82 212.18,535.98 950.28,467.02 1156.96,76.43l-110.08 -116.75c-111.09,77.73 -153.98,187.64 -400.28,187.64 -425.98,0 -383.22,-921.49 -70.88,-921.49 283.04,0 184.3,79.73 184.3,198.48 0,288.28 523.2,143.2 295.71,-210.64 -226.61,-352.49 -1103.79,-216.86 -1103.79,522.53z"/>
   <path class="fil0" d="M16171.53 1105.79c0,240.75 -5.21,155.94 170.12,155.94l0 1261.73c0,135.31 -16.43,212.65 -155.94,212.65l0 170.12 680.48 0 0 -198.48 -170.12 0c35.54,-152.54 14.18,-1451.38 14.18,-1715.39l-127.59 0c-51.08,0 -21.91,32.66 -191.84,63.35 -80.64,14.56 -219.29,-19.84 -219.29,50.07z"/>
   <path class="fil3" d="M3603.87 2938.02l4.95 -445.91 -1.55 -269.93 7.68 -413.94c48.81,20.54 38.76,22.75 68.45,6.17 43.55,-24.32 -25.15,5.63 32.45,-19.69 14.96,21.52 7.56,16.66 31.66,36.81 28.82,24.09 0.14,4.52 94.42,5.82 0.7,0.01 4.16,-0.33 4.89,-0.26 0.77,0.07 4.39,0.09 5.2,0.27 0.88,0.19 4.63,0.83 5.55,1.15 57.36,20.54 13.88,40.58 65.56,21.17 2.68,-1 19.92,-11.85 24.17,-13.9 -5.47,51.77 -21.01,25.16 18.02,53.83l0 -226.75c265.96,0 560.16,12.04 822.53,0.27 123.64,-5.54 210.08,-67.34 272.71,-138.42 77.27,-87.68 98.13,-174.82 165.85,-272.98 -3.79,-2.82 -14.38,-16.72 -17.21,-19.79 -2.42,-2.61 -5.43,-6.33 -8.03,-9 -37.57,-38.5 -53.58,-37.29 -71.88,-32.84 -54.81,13.35 -36.51,34.4 -39.62,51.32 -2.33,-3.21 -4.45,-8.08 -6.18,-10.18l-22.83 -24.86c-33.33,-22.78 -46.05,-3.71 -81.26,-34.37l-22.69 -34.46c-13.88,18.41 25.06,14.61 -34.85,14.61l-14.97 50.05c-28.5,6.63 -11.36,8.2 -34.26,-1.27 -121.52,29.09 -719.73,8.25 -907.31,8.25l0 -106.59c-61.1,-7.85 -31.58,-4.88 -45.09,-42.29 -19.39,-53.66 24.69,31.63 -11.62,-40.28 -69.19,27.25 -82.41,169.55 -171.25,78.42 -55.79,-57.23 -50.28,5.78 -68.36,-78.6 -0.41,-1.89 -1,-5.99 -1.51,-7.92 -29.68,-114.28 -21.84,-10.02 -16.89,-113.52 0.37,-7.8 2.36,-9.47 4.07,-14.03 -16.74,15.56 4.16,17.34 -37.24,-3.21 -13.01,79.77 -4.67,208.7 -5.02,232.54l-8.55 1814.3z"/>
   <path class="fil0" d="M15122.45 1672.86c0,217.54 -32.45,184.3 170.12,184.3l0 609.6c0,261.53 110.66,482.01 368.6,482.01 143.51,0 217.43,-8.82 337.93,-87.38 37.4,-24.38 61.42,-45.54 90.91,-79.21l81.53 -102.76c-28.6,-42.72 -71.89,-98.54 -127.59,-113.41 -26.78,17.94 -390.56,418.12 -383.26,-198.97l14.67 -524.05 311.89 0c0,-265.68 60.99,-212.65 -311.89,-212.65 0,-365.92 43.59,-311.89 -170.12,-311.89 -70.77,0 -57.52,196.73 -261.59,291.31 -60.48,28.03 -121.19,3.08 -121.19,63.12z"/>
   <path class="fil4" d="M123.41 850.6c0,-23.98 41.58,-19.89 17.94,0l-5.24 0.78c-14.31,0.3 -12.7,31.46 -12.7,-0.78zm127.59 -28.35c32.81,-44.78 51.41,-28.36 127.59,-28.36 -18.92,16.44 -14.97,18.05 -45.55,25.34 -26.15,6.23 -55.13,3.01 -82.04,3.01zm-70.88 -56.71c0.76,-6.16 64.32,-25.4 18.92,0.97 -24.75,14.37 -21.58,20.51 -18.92,-0.97zm340.24 -42.53l113.42 0c-19.55,27.07 -63.87,35.77 -94.33,21.68 -15.09,-6.98 -17.77,16.81 -19.09,-21.68zm-155.94 14.18c38.08,-36.12 37.59,-55.02 113.41,-56.71l0 28.36c-59.28,13.81 -38.96,26.7 -113.41,28.35zm-311.89 -99.24l42.53 0 0 28.35c-41.45,-9.92 -20.42,1.82 -42.53,-28.35zm439.48 -42.53l99.24 0c39.92,0 26.25,6.13 42.53,28.36l-184.3 0c16.6,-23.89 2.03,-28.36 42.53,-28.36zm-297.72 0c95.33,2.13 70.98,48.2 155.95,70.88 -52.55,71.73 -71.75,-20.05 -155.95,-42.53l0 -28.36zm155.95 14.18c14.68,-54.97 19.14,-55.24 85.06,-56.71 -25.99,38.81 -26.47,51.83 -85.06,56.71zm-226.83 -56.71c15.36,-6.8 -4.4,-26.06 16.87,-0.21 15.08,18.33 3.86,0.02 11.48,28.57 -55.04,-14.7 -27.87,-27.42 -28.35,-28.36zm170.12 -28.35c0,-38.49 50.71,-0.01 12.71,0.77 -14.32,0.3 -12.71,31.46 -12.71,-0.77zm340.24 -56.71l0 28.36 -212.65 0c29.3,-39.99 10.54,-28.15 83.69,-29.73 40.98,-0.88 87.08,1.37 128.97,1.37zm-283.54 -42.53c15.07,-15.07 53.78,22.5 15.79,7.37 -0.32,-0.13 -39.54,16.38 -15.79,-7.37zm-127.59 -141.77c15.36,-6.8 -4.4,-26.06 16.87,-0.21 15.09,18.33 3.86,0.01 11.49,28.56 -55.04,-14.7 -27.87,-27.42 -28.36,-28.36zm453.66 85.06c-114.71,0 -105.45,18.22 -166.78,-45.88 -52.23,-54.58 -59.42,-53.36 -159.29,-53.36 26.29,-36.4 32.57,-21.2 70.7,-20.89 122.93,1 67.78,25.93 163.07,70.65 56.78,26.65 60.03,5.44 92.3,49.47zm-389.86 -141.77l-21.27 0 21.27 0 0 0zm233.92 -28.35c0.14,-0.06 368.08,-77.39 382.77,99.24 -175.19,-14.58 -292.88,23.45 -382.77,-99.24zm-77.97 -56.71l21.26 0 -21.26 0 0 0zm148.85 -42.53c189.42,0 286.13,-28.98 357.03,68.27 21.85,29.97 51.27,83.89 68.27,116.03 -107.67,-8.96 -32.54,-89.43 -170.84,-141.05 -68.63,-25.61 -204.19,-14.9 -296.99,-14.9 16.6,-23.89 2.03,-28.36 42.53,-28.36zm-113.41 -42.53l28.36 0 0 42.53c-54.33,-37.75 -5.97,0.07 -28.36,-42.53zm992.45 652.13c12.7,-57.62 15.89,-33.55 16.15,-88.71 0.14,-30.02 -0.51,-47.12 -1.39,-85.11 -0.91,-38.97 -6.82,-133.14 6.62,-184.31l76.64 -24.65c-53.42,-23.29 -9.86,14.22 -88.49,-21.48 -43.46,-19.73 -335.13,-6.87 -392.37,-6.87 -79.61,-118.88 -82.69,-239.07 -242.09,-255.11 -116.18,-11.69 -83.78,-4.28 -183.04,0.27 -148.9,6.82 -80.84,-42.87 -212.82,-42.87 -64.37,121.65 -83.12,96.97 -85.06,184.3 -127.08,-85.09 -98.65,-77.28 -189.77,66.81 -51.22,81 26.7,112.89 62.18,131.66 74.83,-39.6 69.25,-68.36 154.06,-56.82 61.29,8.35 91.79,52.41 129.48,85.17 -168.1,0 -53.34,-42.53 -198.47,-42.53 -74.18,110.78 -83.53,101.47 -85.06,170.12 -77.08,-20.58 -29.3,-42.53 -155.95,-42.53l-66.35 105.36c-33.21,54.42 -2.64,81.94 23.82,121.46 108.39,0 55.23,-22.37 141.77,-42.53 -19.76,26.96 -1.58,-0.16 -20.77,21.76 -136.85,156.32 -94.64,184.62 -21.76,233.42 26.15,-13.84 65.73,-43.38 91.14,-50.63 45.32,-12.93 110.1,-7.76 139.91,-16.03 125.47,-34.82 -25.09,-62.34 236.74,-60.98l450.08 -5.25c57.35,-19.23 36.08,8.37 -10.55,-79.76l425.37 -14.17z"/>
   <path class="fil5" d="M3540.01 3007.26c66.16,8.78 67.16,-9.5 63.86,-69.24l8.55 -1814.3c0.35,-23.84 -7.99,-152.78 5.02,-232.54 -9.26,-64.45 -17.08,-117.53 16.02,-173.95 46.67,-2.5 5.08,14.14 28.5,12.22 78.62,-6.43 69.3,24.41 69.25,-56.24 31.5,30.71 23.54,-34.02 29.9,56.71l15.66 -17.51c33.21,-26.02 23.21,-15.95 69.43,-6.31 78.39,16.35 11.77,0.73 58.32,-11.79 77.02,-20.72 -5.94,193.47 60.8,269.01l-0.53 -198.33c3.26,-37.23 17.89,-73.71 24.51,-59.81 1.5,3.14 7.79,-2.83 9.87,-3.17l466.68 6.84c22.91,-22.85 5.31,-10.2 45.23,-10.9 2.66,-0.05 7.07,0.22 9.84,0.28 9.5,0.19 29.97,2.04 30.56,2.06l360.48 8.57c8.35,77.3 1.45,23.61 22.83,44.24l2.99 -92.56c149.07,24.53 2.14,-37.73 133.5,11.37 77.42,28.94 -55.53,13.1 15.06,3.27l25.72 -11.6c0.76,-0.07 4.39,-0.04 5.14,0.03 32.33,3.35 99.92,73.48 124.03,87.71 -20.41,-129.29 -99.47,-276.06 -183.72,-340.75 -135.85,-104.32 -198.02,-84.48 -425.88,-84.48 -344.97,0 -689.94,0 -1034.91,0 0,71.76 13.72,79.2 -56.71,85.06l0 2596.13z"/>
   <path class="fil0" d="M7240.15 3331.55l-1488.56 0 0 141.76c129.08,0 275.11,9.66 400.41,-8.13l1215.74 -6.05c266.86,0 344.41,-14.3 581.25,-14.18l3402.43 -28.35c0,-170.68 43.36,-127.59 -496.19,-127.59l-467.6 14.33c-363.89,-1.1 -727.94,-0.15 -1091.85,-0.15l-2009.93 21.44c-35.38,3.01 -1.58,6.91 -45.71,6.91z"/>
   <path class="fil0" d="M12669.87 3289.01l0 127.59c204.16,0 1055.75,13.39 1185.68,-6.72 13.23,-2.05 26.84,-4.35 49.09,-5.92 41.82,-2.94 84.17,-1.69 126.15,-1.58l2580.24 -14.12c106.35,0.24 166.56,-13.67 254.6,-14.76l795.73 1.79c64.74,0.52 107.98,17.26 94.57,-82.98 -5.41,-40.51 6.3,-8.91 -10.78,-45.84 -916.44,0 -1612.92,14.18 -2523.47,14.18 -246.78,0 -365.13,14.18 -609.6,14.18l-1942.22 14.17z"/>
   <path class="fil0" d="M17050.49 1687.04l-42.53 0 0 198.48 170.12 0c0,91.88 -14.93,127.36 -14.36,226.64l-2.74 507.63c-12.88,83.77 -37.9,114.08 -138.84,116.33l0 170.12 666.31 0 0 -198.48 -155.94 0 0 -1091.61c-295.61,0 -155.47,70.88 -482.01,70.88z"/>
   <path class="fil6" d="M2131.66 5158.63l-15.46 -44.31c24.81,8.91 15.85,27.91 44.73,21.61 61.34,-13.38 -34.79,29.87 14.34,-8.97l14.64 -17.21c1.88,-2.12 4.6,-7.15 7.47,-10.26 4.4,56.27 -14.64,31.69 20.88,50.58 18.94,10.07 64.93,-11.88 94.03,-14.1 87.4,-6.68 22.24,32.89 101.47,3.74l171.22 -15.29c40.05,14.8 -16.87,22.96 119.61,-3.6l108.37 -5.44c0.74,0.15 4.15,0.84 4.92,1 77.41,15.61 45.72,-30.3 108.46,2.33 64.1,33.34 6.23,31.06 69.75,19.21 66.41,-12.39 -0.44,-10.41 62.96,4.21 75.58,17.42 79.33,-28.82 126.25,-1.72l45.35 30.84 40.01 -16.25c45.55,-51.4 65.28,-69.78 99.46,-136.21 23.37,-45.44 60.4,-110.67 78.48,-162.52 62.98,-180.48 46.38,-248.33 34.71,-447.23l-38.81 34.19c-31.45,14.55 -48.73,-0.31 -67.02,34.9l-17.86 -58.88c-2.55,2.78 -5.32,7.65 -6.65,9.15l-107.92 7.24c-43.89,0.46 16.63,25.25 -40.26,-2.43l-44.32 -45.21c-1.97,-2.37 -6.78,-3.8 -8.23,-9.82 -1.48,-6.16 -5.24,-7.06 -8.47,-9.99 18.15,103.78 42.56,145.51 33.88,246.64 -11.75,136.87 -84.99,225.49 -85.14,225.09 -0.83,-2.13 -4.03,5.23 -6.16,7.76 -40.21,48.07 -45.41,77.01 -98.61,114.81 -318.97,226.6 -727.12,83.8 -798.35,-337.56 -11.92,-70.52 3.83,-78.97 3.83,-187.54 -35.83,5.32 -49.03,6.31 -74.35,1.48l-118.11 -0.79c-69.28,4.98 -15.14,-33.96 -56.52,35.57 -6.08,-50.78 -11.8,-63.18 -42.89,-93.94 -13.25,17.46 -4.97,-9.09 -20.61,41.63 -57.39,186.14 47.25,623.5 250.92,737.28z"/>
   <path class="fil7" d="M13761.48 1332.62l0 0zm0 0c-40.74,60.84 -98.54,106.05 -152.43,159.46 -32.47,32.17 -47.81,47.32 -74.54,81.35 -42.14,53.65 -46.27,39.98 -70.75,113.54 58.48,10.81 3.64,53.72 140.76,18.32 40.39,-10.42 -15.88,-9.36 10.35,-4.08l-9.27 70.88c62.06,-39 21.61,-43.76 109.5,-131.44 201.1,-200.63 500.38,-264.68 768.65,-123.01 22.43,11.85 44.33,28.02 67.8,45.62 177.05,132.75 149.36,201.43 216.02,251.36l-0.06 -31.29 78.81 2.74c2.94,-0.09 11.33,-4.36 35.12,0.13 -54.75,-164.57 -170.53,-292.72 -276.95,-417.64 -1.9,-2.23 -4.52,-5.52 -6.44,-7.74l-56.68 -56.73c-65.07,-56.65 -70.77,-75.88 -170.3,-99.06 27.44,-40.97 26.15,-29.5 42.65,-84.66l42.42 -113.74c-46.54,27.85 -44.4,28.18 -58.52,72.66 -68.25,-45.6 3.86,-30.36 -72.33,-35.23 -115.64,-7.39 -127.54,11.02 -235.29,-6.58l-171.76 20.16c-97.33,1.78 -209.54,-39.41 -213.55,-107.79l-56.64 42.53 73.65 82.41c-40.2,53.74 -105.4,59.29 -116.25,146.26 -5.02,40.18 4.74,83.93 26.08,99.65 27.05,19.93 85.57,11.92 129.94,11.92z"/>
   <path class="fil8" d="M3018.56 2520.28l1.02 178.03 -74.99 34.76 -374.31 252.52c-68.33,45.27 -114.5,85.55 -184.35,127.53 -36.44,21.9 -70.33,31.59 -102.53,53.48 -73.86,50.22 -27.87,63.8 -61.83,94.12 49.47,28.38 34.31,12.46 38,81.92 4.52,-1.41 10.55,-9.76 12.89,-5.98 2.21,3.58 9.32,-4.31 12.28,-5.46 76.62,-29.85 157.88,-30.76 235.21,-13.22l65.14 7.67c0.73,0.04 4.17,0.34 4.9,0.36l38.14 -8.23c54.83,-17.91 -24.54,-7.06 20.78,-3.52 84.58,6.61 97.95,-23.21 233.26,-118.65 112.3,-79.2 361.39,-262.78 445.2,-303.5l42.53 -0.08 0 -362.58c-44.14,-49.21 -67.85,-36.5 -139.61,-13.2 -111.06,36.06 -63.26,-21.81 -125.59,45.56l-39.77 -42.88c-9.31,-5.8 2.8,-12.76 -46.36,1.33z"/>
   <path class="fil9" d="M14385.26 2225.76c2.02,-90.58 19.43,-78.6 113.41,-56.71l0 28.35c-51.22,4.26 -67.56,17.67 -113.41,28.36zm141.77 -70.88l4.23 4.23c-0.28,-0.28 -5.64,-2.82 -4.23,-4.23zm-170.12 0c-0.96,43.19 -6.4,51.68 -14.17,85.06l-42.53 0c1.23,-3.41 4.94,-11.45 5.64,-9.29l13.55 -27.78c10.69,-43.9 12.36,-11.79 -5.01,-47.99l42.53 0zm0 0c8.59,-46.41 -18.05,-19.77 28.36,-28.35l-28.36 28.35zm141.77 -42.53c14.15,-5 -7.63,-39.66 28.36,28.35 -55.04,-14.7 -27.87,-27.42 -28.36,-28.35zm-113.41 14.18c29.23,-25.41 21.32,-24.23 70.88,-28.36l0 28.36 -70.88 0zm113.41 -184.3c-58.78,-28.2 -85.06,7.56 -85.06,-70.88 0,-40.64 31.08,-51.55 53.5,-49.12 25.64,2.78 37.15,21.93 53.48,40.82 1.43,1.66 4.14,5.65 6.44,8.3 -6.46,27.72 -14.3,51.99 -28.36,70.88zm-1162.5 -67.2c36.28,63.27 -24.28,63.29 -25.18,251.46 -0.39,82.51 35.22,236.14 65.6,243.92 53.72,13.76 65.55,13.03 111.93,-4.45 3.14,-1.18 13.49,-5.61 17.77,-7.63 190.37,-75.8 258.57,-197.94 504.25,-127.38 21.44,6.16 31.7,8.99 58.02,13.64 97.3,17.19 134.54,1.51 203.28,37.88 -0.96,43.19 -6.4,51.68 -14.18,85.06 -118.2,0 -275.86,-20.83 -311.89,28.35l155.79 8.57c30.47,0.27 102.56,12.16 161.38,-17.62 55.59,-28.15 34.33,-38.17 44.82,-84.83 12.41,-55.18 72.74,-34.76 178.93,-74.74 93.47,-35.2 88.04,-37.84 167.92,16.19l29.71 -58.65c23.89,-96.64 -9.73,-350.62 -100.59,-360.2 -20.72,17.44 -6.74,-36.05 3.29,36.61 5.33,38.63 -2.04,24.63 -3.29,81.02 -72.42,-53.06 27.82,-152.16 -141.77,-155.94 -17.69,16.03 -18.44,16.41 -42.53,28.35 -11.65,49.99 -14.18,46.58 -14.18,113.42l99.24 56.71 -78.92 0c-14.11,27.75 -8.17,-18.36 -6.74,47.87 -2.11,-3.45 -4.12,-8.39 -5.68,-10.74l-107.14 -79.59c-20.02,27.01 -34.78,15.13 -55.04,73.3l-18.25 51.88c-1.42,2.83 -4.02,5.92 -5.49,8.74l-14.6 28.67c-5.82,14.21 -5.21,43.55 -26.25,53.96 -48.08,23.79 0.52,1.79 -23.88,-1.48 -27.41,-3.67 -44.95,-51.5 -54.97,40.05l-42.53 0c-15.21,-56.95 -3.85,-41.03 -70.88,-42.53l0 42.53c-68.56,-50.23 12.5,-114.39 -113.41,-85.06 7.3,-87.69 61.4,-55.52 -18.57,-107.36 -48.98,-31.76 -2.29,26.33 -46.64,-34.41 24.04,-59.16 12.3,-45.7 -1.47,-87.63 -1.4,-4.26 -7.3,-24.73 -9.81,-32.95 -63.71,15.81 -55.96,32.39 -58.21,-18.25l-49.61 25.34c-135.77,305.24 61.48,373.76 -99.24,411.2 -112.25,-233.94 32.72,-426.41 28.43,-496.19l9.27 -70.88c-26.23,-5.28 30.04,-6.35 -10.35,4.08 -137.12,35.4 -82.28,-7.51 -140.76,-18.32 -40.52,2.57 11.32,-17.83 -21.76,9.46 -3.34,2.75 -18,19.59 -18.48,20.23l-87.35 158.36z"/>
   <path class="fil10" d="M14848.19 2480.94c-20.54,-39.49 -32.36,-20.84 -122.69,-14.03l-28.36 -36.24c-98.91,200.01 -422.34,339.49 -720.21,245.95l-169.98 -85.2c-38.31,-29.19 -32.55,-18.08 -45.47,-53.77 258.39,0 164.69,99.89 453.87,85.37 100.57,-5.05 222.86,-51.21 300.01,-110.92 49.46,-38.27 53.25,-50.68 68.36,-87.79 -38.78,40.25 -41.05,55.04 -108.84,62.5l-123.48 -14.45c-1.24,-2.95 -4.44,-8.62 -5.69,-11.3 -1.35,-2.91 -6.67,-4.54 -7.8,-11.34 -1.21,-7.23 -6.17,-7.57 -9.3,-11.31 -173.7,77.26 -27.64,86.26 -325.76,70.7 -233.1,-12.16 -172.83,-54.39 -383.15,56.9 -44.2,-66.01 -106.92,-108.32 -113.41,-207.68 -4.27,2.01 -14.63,6.45 -17.77,7.63 -46.38,17.48 -58.21,18.21 -111.93,4.45 -30.38,-7.78 -65.99,-161.42 -65.6,-243.92 0.89,-188.18 61.46,-188.19 25.18,-251.46 -78.55,213.7 -89.1,416.45 23.58,610.7 206.8,356.48 703.22,456.49 1068.1,321.35 135.1,-50.04 409.22,-211.49 420.34,-326.13z"/>
   <path class="fil11" d="M3603.87 2938.02c3.3,59.74 2.3,78.02 -63.86,69.24 -33.88,59.25 1.23,19.99 -55.41,56.12 -81.26,51.83 -449.69,285.06 -481.57,339.05 29.15,73.97 37.54,-10.38 211.09,-58.61l188.99 -37.78c40.12,-4.87 25.6,-27.32 73.97,-12.7l173.1 15.16c65.32,-7.66 2.37,26.28 60.02,8.94 32.5,-18.74 67.05,-38.73 98.23,-60.6 37.73,-26.46 51.39,-48.38 100.18,-38.64 23.28,-12.34 42.02,-27.33 70.88,-42.6 -35.91,-74.84 -14.17,-497.78 -14.17,-623.85 -14.61,-5.77 -26.72,-10.56 -40.3,-15.8l-112.38 -6.43c-56.06,4.55 -17.91,37.49 -90.28,18.88l-113.53 -56.29 -4.95 445.91z"/>
   <path class="fil12" d="M13676.42 1857.09l49.61 -25.34c2.25,50.64 -5.5,34.06 58.21,18.25 2.51,8.22 8.41,28.69 9.81,32.95 13.77,41.93 25.51,28.47 1.47,87.63 55.55,-3.76 29.67,11.67 63.33,-18.3 37.92,-33.76 4.23,-38.05 3.28,-40.36 -13.36,-32.31 -19.26,10.98 -21.9,-42.3 -2.25,-45.49 20.31,-12.24 23.31,-12.06 29.42,1.75 -7.1,46.21 40.35,-1.24 44.29,-44.3 -34.54,-71.98 26.07,-77.32 27.19,-2.4 8.15,8.06 58.36,21.47 43.56,-31.92 22.87,9.13 28.36,-56.71l42.53 0c4.34,52.16 4.55,52.37 56.71,56.71 11.4,-42.71 -0.18,-31.13 42.53,-42.53 23.89,57.82 -30.38,97.78 85.06,70.88 -4.58,55.08 -12.79,36.94 -14.18,99.24 25.16,12.07 17.49,12.67 56.71,14.25l107.14 79.59c1.56,2.35 3.56,7.29 5.68,10.74 -1.43,-66.23 -7.37,-20.11 6.74,-47.87 -0.94,-2.68 -3.99,-9.09 -4.61,-7.19 -0.63,1.94 -3.91,-5.91 -4.79,-7.29 -82.16,-127.67 11.08,-59.29 -53.45,-155.65 45.27,9.59 22.07,14.31 56.71,0 -7.3,-27.52 -2.6,-21.93 -14.18,-42.53l56.71 14.18c25.69,-35.57 62.85,-30.21 99.46,-0.97l33.19 30.71c2.18,2.05 6.38,5.43 9.11,8.58 90.86,9.58 124.48,263.57 100.59,360.2l-29.71 58.65c-19.02,62.54 -112.05,76.26 -236,142.75 -40.34,21.64 -44.24,29.11 -90,52.21 3.13,3.75 8.09,4.08 9.3,11.31 1.14,6.8 6.45,8.43 7.8,11.34 1.24,2.68 4.44,8.34 5.69,11.3l123.48 14.45c67.79,-7.46 70.06,-22.25 108.84,-62.5 52.05,-3.3 106.03,-131.83 118.78,-179.01 136.15,-503.76 -323.74,-815.79 -688.26,-702.52 -146.04,45.38 -290.78,172.86 -337.84,314.31z"/>
   <path class="fil0" d="M2278.28 212.65c40.4,19.39 779.16,11.08 891.41,5.51 91.34,-4.54 78.3,8.67 129.32,8.67 79.36,0 97.1,-14.73 256.34,-9.88l480.85 9.88c54.2,0 5.16,4.35 42.53,-14.18 -32.43,-44.26 -117.88,-56.07 -178.79,-76.39 -429.59,-143.32 -1001.9,-144.88 -1432.2,-3.51 -72.77,23.91 -161.22,41.37 -189.46,79.9z"/>
   <path class="fil0" d="M8657.83 4451.51l127.59 0c2.66,-119.17 42.53,-226.05 42.53,-354.42 41.32,47.54 91.19,221.55 111.04,285.9 19.23,62.36 5.19,68.3 59.08,82.69 39.96,-29.28 43.84,-84.94 79.08,-176.11l76.87 -192.49c0,112.38 42.53,238.85 42.53,354.42l127.59 0c0,-131.83 -81.9,-495.87 -85.06,-637.96 -126.51,0 -100.17,-5.15 -126.71,71.76 -23.77,68.89 -95.49,241.26 -100.12,296.83l-28.36 0c-30.01,-128.8 -101.94,-258.48 -127.59,-368.6l-99.24 0c-7.57,90.96 -38.15,228.76 -52.68,315.91 -16.77,100.58 -46.56,220.81 -46.56,322.04z"/>
   <path class="fil0" d="M12783.28 4451.51l127.59 0 0 -396.95c66.49,44.53 288.13,378.73 312.6,396.24 32.28,23.08 26.41,14.89 98.52,14.89l0 -637.96 -127.59 0 0 396.95 -238.94 -313.95c-77.19,-104.11 -53.92,-97.17 -172.19,-97.17l0 637.96z"/>
   <path class="fil13" d="M2131.66 5158.63c40.29,58.41 130.97,116.81 217.16,156.55 300.6,138.61 732.38,46.01 881.83,-143.92l-45.35 -30.84c-46.92,-27.11 -50.67,19.14 -126.25,1.72 -63.4,-14.62 3.45,-16.6 -62.96,-4.21 -63.52,11.85 -5.65,14.13 -69.75,-19.21 -62.74,-32.64 -31.04,13.28 -108.46,-2.33 -0.78,-0.16 -4.18,-0.85 -4.92,-1l-108.37 5.44c-136.48,26.56 -79.56,18.41 -119.61,3.6l-171.22 15.29c-79.23,29.15 -14.07,-10.42 -101.47,-3.74 -29.1,2.22 -75.09,24.17 -94.03,14.1 -35.52,-18.89 -16.48,5.69 -20.88,-50.58 -2.87,3.11 -5.59,8.14 -7.47,10.26l-14.64 17.21c-49.12,38.84 47,-4.41 -14.34,8.97 -28.88,6.3 -19.92,-12.7 -44.73,-21.61l15.46 44.31z"/>
   <path class="fil0" d="M13449.59 4139.62c0,397.72 581.25,488.28 581.25,-28.36l-269.36 0 0 113.42 127.59 0c-14.6,62.65 -55.28,127.59 -127.59,127.59 -233.34,0 -236.12,-425.31 0,-425.31 76.96,0 101.31,49.58 127.59,99.24 32.96,-17.44 78.96,-47.51 113.41,-56.71 -64.02,-239.75 -552.9,-227.07 -552.9,170.12z"/>
   <path class="fil14" d="M3026.38 1544l14.75 -28.83c13,44.08 25.22,48.23 45.45,86.59l85.06 -56.71c62.12,51.91 77.85,42.54 127.99,2.29 16.53,-13.27 14.52,2.55 27.8,-30.16 2.04,110.3 -9.52,81.32 42.46,98.9l0 -520.11c-45.11,-8.42 -12.03,-58.29 -64.01,-47.21 2.2,-3.26 5.57,-7.11 7.11,-9.43 45.8,-68.84 -14.67,60.26 23.51,-40.62 12.61,-33.31 7.53,-9.02 11.31,-55.14l-115.57 54.36c-26.05,54.7 30.04,12.04 -12.47,27.45 10.16,48.98 26.04,-9.54 -9.5,-4.41 -69.52,10.02 16.67,-5.13 -33.48,22.73 7.69,-8.29 23.85,42.62 7.84,-36.79 -0.4,-1.99 -2.04,-6.58 -2.8,-8.33 -11.25,-25.75 12.67,-25.71 -52.86,-14.29l-50.53 16c-19.48,-22.65 -32.4,-44.6 -48.02,-69.77l-4.05 613.49z"/>
   <path class="fil15" d="M3003.03 3402.43c-53.96,13.59 -118.54,71.03 -171.86,99.24l14.11 56.71 8.74 189.8c10.09,0.5 21.31,37.94 28.07,-56.25 21.11,72.69 63.96,-32.12 64.33,-32.48 31.87,-18.21 -19.09,-1.62 16.16,0.41 0.82,0.04 4.91,0.33 5.83,0.39 0.93,0.06 4.93,0.37 5.9,0.43 0.95,0.07 4.84,0.37 5.8,0.44l42.35 -2.48c41.61,-14.6 62.3,-51.41 10.01,38.47 -1.88,3.24 -5.24,8.07 -7.29,12.41l55.26 -12.2c91.6,-17.94 64.38,16.63 95.53,1.76l534.23 -381.65c-57.65,17.34 5.3,-16.6 -60.02,-8.94l-173.1 -15.16c-48.38,-14.62 -33.85,7.83 -73.97,12.7l-188.99 37.78c-173.55,48.23 -181.95,132.58 -211.09,58.61z"/>
   <path class="fil16" d="M3021.21 2204.19l-2.65 316.09c49.16,-14.09 37.05,-7.13 46.36,-1.33l39.77 42.88c62.33,-67.37 14.53,-9.49 125.59,-45.56 71.76,-23.3 95.47,-36.01 139.61,13.2l0 -369.21c-31.44,-61.54 -11.52,-135.93 -31.99,-203.87 -24.2,-34.81 9.05,-0.67 -40.83,0.4l-89.43 8.05c-2.53,0.79 -6.61,2.74 -8.97,3.42l-110.97 -3.21c-8,2.6 -13.24,56.93 -15.31,-35.75 -23.87,34.24 -10.42,42.89 -22.97,54.67l-5.39 -57.58c-1.35,3.27 -2.11,7.92 -2.5,10.3 -0.4,2.44 -1.78,7.55 -2.19,10.67 -9.13,67.78 4.05,185.19 -18.12,256.81z"/>
   <polygon class="fil0" points="11875.97,4451.51 12003.56,4451.51 12003.56,4182.15 12216.21,4182.15 12216.21,4451.51 12343.8,4451.51 12343.8,3827.73 12216.21,3827.73 12216.21,4068.74 12003.56,4068.74 12003.56,3827.73 11875.97,3827.73 "/>
   <polygon class="fil0" points="7750.52,4451.51 7878.11,4451.51 7878.11,4182.15 8090.76,4182.15 8090.76,4451.51 8218.35,4451.51 8218.35,3827.73 8090.76,3827.73 8090.76,4068.74 7878.11,4068.74 7878.11,3827.73 7750.52,3827.73 "/>
   <path class="fil17" d="M3270.65 5155.01l-40.01 16.25c-149.44,189.93 -581.23,282.53 -881.83,143.92 -86.18,-39.74 -176.87,-98.14 -217.16,-156.55 -203.67,-113.77 -308.31,-551.14 -250.92,-737.28 15.64,-50.72 7.36,-24.17 20.61,-41.63 0.2,-48.56 22.88,-87.69 8.34,-119.89 -156.4,247.93 -137.38,617.27 52.34,876.53 403.54,551.44 1140.31,331.4 1308.63,18.65z"/>
   <path class="fil0" d="M9692.74 4026.21l58.79 183.61 -129.67 0.69c9.01,-38.65 18.42,-60.02 29.64,-97.95 16.63,-56.24 0.01,-56.13 41.25,-86.34zm-297.71 425.3l141.77 0c12.73,-54.64 31.33,-79.5 42.53,-127.59l212.65 0c11.2,48.09 29.8,72.95 42.53,127.59l141.77 0 -226.83 -637.96 -113.41 0 -241 637.96z"/>
   <path class="fil0" d="M10075.51 4451.51l127.59 0 0 -255.18c57.25,38.34 87.38,106.11 131.43,166.28 76.57,104.58 54.93,88.9 222.99,88.9 -44.83,-84.72 -176.57,-244.01 -241.01,-340.24l226.83 -283.53 -155.95 0c-30.98,46.26 -149.03,215.17 -184.3,241l0 -241 -127.59 0 0 623.78z"/>
   <path class="fil0" d="M15703.7 4026.21c3.83,46.07 39.84,149.15 56.71,184.3l-127.59 0c3.66,-43.91 15.21,-68.99 25.91,-101.69 17.33,-52.97 8.05,-55.55 44.98,-82.61zm-297.71 425.3l141.77 0c3.34,-40.15 27.76,-96.81 42.53,-127.59l212.65 0c9.46,40.6 26.35,93.87 42.53,127.59l127.59 0 -201.37 -578.35c-24.38,-59.94 -3.14,-59.6 -96.34,-59.6 -52.93,0 -112.73,214.3 -147.8,305.86 -40.32,105.24 -97.13,227.27 -121.56,332.1z"/>
   <path class="fil18" d="M4934.79 753.08c-16.4,87.14 11.3,265.19 -12.94,409.1 59.91,0 20.97,3.8 34.85,-14.61l22.69 34.46c35.21,30.66 47.93,11.59 81.26,34.37l22.83 24.86c1.74,2.11 3.85,6.97 6.18,10.18 3.11,-16.92 -15.19,-37.97 39.62,-51.32 18.3,-4.46 34.31,-5.66 71.88,32.84 2.6,2.67 5.61,6.39 8.03,9 2.83,3.07 13.42,16.97 17.21,19.79 2.05,-71.19 11.81,-72.12 23.23,-133.49 10.69,-57.49 12.56,-117.65 13.11,-140.41 0.2,-8.33 6.39,-173.78 -21.52,-236.53 -24.11,-14.23 -91.7,-84.36 -124.03,-87.71 -0.75,-0.08 -4.38,-0.1 -5.14,-0.03l-25.72 11.6c-70.59,9.83 62.36,25.67 -15.06,-3.27 -131.36,-49.1 15.57,13.16 -133.5,-11.37l-2.99 92.56z"/>
   <path class="fil0" d="M18241.35 623.78c188.02,0 326.07,126.64 326.07,326.07 0,254.09 -336.65,394.67 -528.94,202.87 -201.09,-200.58 -29.4,-528.94 202.87,-528.94zm-368.6 311.89c0,95.11 46.81,194.47 109.34,259.26 201.97,209.27 499.9,128.25 613.19,-75.45 204.86,-368.35 -284.34,-778.78 -606,-450.05 -65.9,67.34 -116.53,164.45 -116.53,266.24z"/>
   <path class="fil19" d="M3607.28 2222.18l47.63 1.87c-15.7,40.64 -18.74,17.59 25.41,56.95 25.63,-58.46 -29.39,-16.91 31.29,-56.71 10.71,34.93 -2.05,14.73 10.32,38.76 9,17.47 19.36,22.74 34.25,44.26 50.11,-57.1 14.37,-30 79.92,-15.91 39.11,8.41 23.48,-45.67 129.22,-9.01l0 -382.77c-39.02,-28.66 -23.49,-2.06 -18.02,-53.83 -4.25,2.05 -21.49,12.9 -24.17,13.9 -51.68,19.41 -8.19,-0.63 -65.56,-21.17 -0.92,-0.33 -4.67,-0.96 -5.55,-1.15 -0.81,-0.18 -4.43,-0.19 -5.2,-0.27 -0.73,-0.07 -4.19,0.27 -4.89,0.26 -94.28,-1.3 -65.6,18.27 -94.42,-5.82 -24.1,-20.15 -16.7,-15.3 -31.66,-36.81 -57.6,25.32 11.09,-4.63 -32.45,19.69 -29.69,16.58 -19.63,14.36 -68.45,-6.17l-7.68 413.94z"/>
   <path class="fil0" d="M10656.76 4451.51l326.07 0c2.89,-129.88 56.46,-113.41 -184.3,-113.41 -0.02,-0.04 -39.82,-155.95 28.35,-155.95l155.95 0 0 -113.41 -184.3 0c-31.57,-149.04 1.49,-128.6 68.81,-128.6 38.25,0 77.02,1.01 115.48,1.01l0 -113.41 -326.07 0 0 623.78z"/>
   <path class="fil0" d="M14158.43 3983.67c0,240.61 241.01,130.42 241.01,297.72 0,83.84 -137.87,106.63 -170.12,-14.18 -46.35,12.38 -61.42,35.58 -85.06,70.88 50.26,188.22 396.95,176.71 396.95,-85.06 0,-215.49 -241,-150.1 -241,-283.53 0,-50.4 27.62,-42.53 85.06,-42.53 34.08,0 41.67,22.97 70.88,42.53 30.98,-46.27 41.21,-32.72 56.71,-99.24 -189.99,-127.22 -354.42,-23.69 -354.42,113.41z"/>
   <polygon class="fil0" points="6701.44,4451.51 7027.5,4451.51 7027.5,4338.1 6829.03,4338.1 6829.03,4182.15 7027.5,4182.15 7027.5,4068.74 6829.03,4068.74 6829.03,3941.15 7027.5,3941.15 7027.5,3827.73 6701.44,3827.73 "/>
   <path class="fil0" d="M14980.68 4451.51l326.06 0 0 -113.41 -198.47 0 0 -155.95c224.48,0 198.47,23.08 198.47,-113.41l-198.47 0 0 -127.59 198.47 0 0 -113.41 -326.06 0 0 623.78z"/>
   <path class="fil0" d="M16086.47 3969.5c0,104.86 -3.61,131.12 108.65,189.06 61.7,31.85 132.36,34.25 132.36,122.83 0,83.84 -137.87,106.63 -170.12,-14.18 -48.85,13.04 -74.67,48.38 -99.24,85.06 2.2,2.53 5.43,3.32 6.37,7.8 0.94,4.49 5.11,6.19 6.42,7.76 6.57,7.89 9.94,12.7 19.3,23.23 134.05,150.82 364.87,56.79 364.87,-95.5 0,-287.02 -174.26,-185.92 -228.58,-283.59 -40.06,-72.03 32.36,-85.01 86.81,-85.01 34.08,0 41.67,22.97 70.88,42.53 22.03,-32.91 45.12,-55.85 56.71,-99.24 -91.4,-48.36 -73.61,-56.71 -198.48,-56.71 -76.12,0 -155.95,79.82 -155.95,155.95z"/>
   <path class="fil20" d="M3026.38 1544l-5.17 660.19c22.18,-71.62 8.99,-189.03 18.12,-256.81 0.42,-3.12 1.79,-8.23 2.19,-10.67 0.39,-2.38 1.15,-7.04 2.5,-10.3l5.39 57.58c12.55,-11.77 -0.91,-20.43 22.97,-54.67 2.07,92.67 7.31,38.35 15.31,35.75l110.97 3.21c2.36,-0.69 6.45,-2.63 8.97,-3.42l89.43 -8.05c49.88,-1.07 16.63,-35.21 40.83,-0.4 20.47,67.94 0.55,142.34 31.99,203.87l0 -544.19c-51.98,-17.59 -40.42,11.4 -42.46,-98.9 -13.29,32.71 -11.27,16.88 -27.8,30.16 -50.14,40.25 -65.87,49.63 -127.99,-2.29l-85.06 56.71c-20.23,-38.36 -32.45,-42.51 -45.45,-86.59l-14.75 28.83z"/>
   <path class="fil0" d="M7155.1 4125.44c0,403.44 438.13,383.4 448.43,273.39 2.5,-26.73 0.56,-94.42 -8.95,-117.44 -68.89,46.13 -33.71,56.71 -155.95,56.71 -159.67,0 -224.46,-287.09 -56.56,-383.01 109.31,-62.45 129.33,6.39 212.51,28.59 7.39,-17.89 12.23,-86.9 9.56,-105.75 -12.18,-86.27 -252.18,-106.69 -374.37,38.66 -46.67,55.51 -74.67,111.38 -74.67,208.86z"/>
   <path class="fil16" d="M13704.7 949.84c4.01,68.38 116.22,109.57 213.55,107.79l171.76 -20.16c107.75,17.59 119.65,-0.81 235.29,6.58 76.18,4.87 4.08,-10.37 72.33,35.23 14.11,-44.47 11.98,-44.8 58.52,-72.66 52.8,-28 150.71,-111.67 170.12,-184.37 -225.99,-52.65 -238.81,142.05 -483.46,129.74 -98.02,-4.93 -69.43,-40.16 -69.43,-143.92 -103.73,-24.17 -353.06,92.96 -368.67,141.77z"/>
   <path class="fil0" d="M17178.08 1190.85c0,264.13 396.95,292.23 396.95,0 0,-285.35 -396.95,-285.35 -396.95,0z"/>
   <path class="fil0" d="M16710.25 4182.15l0 269.36 127.59 0c0,-319.5 -24.52,-260.86 139.14,-527.17 22.96,-37.36 34.11,-49.2 45.16,-96.61l-141.77 0c-30.61,57.85 -84.36,134.61 -99.24,198.48 -46.46,-34.04 -83.88,-142.66 -113.41,-198.48l-141.77 0c19.73,84.67 184.3,318.3 184.3,354.42z"/>
   <path class="fil18" d="M3617.44 891.18c41.4,20.56 20.5,18.77 37.24,3.21 -1.71,4.56 -3.7,6.23 -4.07,14.03 -4.95,103.5 -12.8,-0.76 16.89,113.52 0.5,1.94 1.1,6.03 1.51,7.92 18.08,84.39 12.56,21.38 68.36,78.6 88.84,91.12 102.06,-51.18 171.25,-78.42 36.31,71.91 -7.77,-13.38 11.62,40.28 13.51,37.41 -16.01,34.44 45.09,42.29l0 -149.29c-66.73,-75.55 16.23,-289.73 -60.8,-269.01 -46.56,12.52 20.07,28.14 -58.32,11.79 -46.21,-9.64 -36.22,-19.71 -69.43,6.31l-15.66 17.51c-6.36,-90.73 1.6,-26 -29.9,-56.71 0.04,80.65 9.36,49.81 -69.25,56.24 -23.42,1.92 18.17,-14.72 -28.5,-12.22 -33.11,56.42 -25.29,109.5 -16.02,173.95z"/>
   <path class="fil0" d="M6219.42 3941.15l113.42 0c0,582 -37.57,510.36 127.59,510.36 18.65,-88.06 5.1,-68.36 7.14,-124.16l7.03 -386.21 113.42 0 0 -113.41 -368.6 0 0 113.41z"/>
   <path class="fil21" d="M2261.13 4309.74c89.45,-52.73 159.49,-126.59 288,-140.28 171.51,-18.28 244.52,13.8 347.3,75.03 51.69,30.79 75.72,53.95 111.22,101.44 172.53,230.82 92.6,338.73 78.72,501.76 2.13,-2.53 5.32,-9.89 6.16,-7.76 0.15,0.39 73.39,-88.22 85.14,-225.09 8.68,-101.13 -15.73,-142.87 -33.88,-246.64 -82.48,-148.28 -196.41,-277.73 -423.33,-291.82 -200.01,-12.42 -417.77,104.48 -459.31,233.37z"/>
   <path class="fil9" d="M14767.57 1814.63c5.69,58.82 26.81,87.96 37.66,147.1 10.68,58.24 8.52,129.51 -0.12,187.69 -16.03,107.98 -49.24,224.61 -107.96,281.25l28.36 36.24c90.33,-6.81 102.15,-25.46 122.69,14.03l52.55 -66.05c66.03,-118.96 66.17,-137.28 65.91,-274.14 -0.15,-77.67 -21.25,-297.45 -85.2,-354.54 -23.79,-4.48 -32.18,-0.22 -35.12,-0.13l-78.81 -2.74 0.06 31.29z"/>
   <polygon class="fil0" points="11379.78,3941.15 11507.37,3941.15 11507.37,4451.51 11634.96,4451.51 11634.96,3941.15 11762.55,3941.15 11762.55,3827.73 11379.78,3827.73 "/>
   <path class="fil22" d="M3608.83 2492.11l113.53 56.29c72.37,18.61 34.22,-14.33 90.28,-18.88l112.38 6.43c13.58,5.24 25.69,10.02 40.3,15.8l0 -269.36c-105.75,-36.66 -90.12,17.42 -129.22,9.01 -65.56,-14.09 -29.81,-41.2 -79.92,15.91 -14.88,-21.52 -25.25,-26.79 -34.25,-44.26 -12.38,-24.03 0.38,-3.84 -10.32,-38.76 -60.68,39.8 -5.66,-1.76 -31.29,56.71 -44.15,-39.35 -41.11,-16.3 -25.41,-56.95l-47.63 -1.87 1.55 269.93z"/>
   <polygon class="fil0" points="12499.74,4451.51 12627.33,4451.51 12627.33,3827.73 12499.74,3827.73 "/>
   <path class="fil0" d="M18255.52 907.32l-56.71 0 0 -85.06 56.71 0c37.92,0 41.93,20.46 56.71,42.53 -14.78,22.07 -18.8,42.53 -56.71,42.53zm-141.76 212.65l85.06 0 0 -141.76c119.83,31.99 23.09,141.76 212.65,141.76 -14.04,-60.25 -40.07,-74.59 -85.06,-141.76l27.58 -29.13c102.7,-118.1 -0.58,-197.7 -84.29,-197.7l-155.94 0 0 368.6z"/>
   <path class="fil0" d="M4475.68 808.08c32.3,48.24 91.78,84.29 159.5,152.39l152.39 159.5c28.41,-50.57 14.18,-217.31 14.18,-283.53 0,-87.75 -325.99,-28.45 -326.07,-28.36z"/>
   <path class="fil23" d="M13945.78 1998.93c0,-133.98 70.96,-127.59 155.94,-127.59 4.6,6.86 114.02,120.59 20.66,190.78 -82.96,62.37 -156.57,-21.42 -176.6,-34.84l0 -28.35zm-42.53 -28.36c0,159.48 137.32,141.77 226.83,141.77 18.29,-27.31 30.15,-31.51 45.07,-54.16 101.79,-154.53 -116.72,-311.43 -226.33,-183.8 -14.77,17.2 -45.57,70.51 -45.57,96.2z"/>
  </g>
 </g>
</svg>
