<?xml version="1.0" encoding="UTF-8"?>
<!DOCTYPE svg PUBLIC "-//W3C//DTD SVG 1.1//EN" "http://www.w3.org/Graphics/SVG/1.1/DTD/svg11.dtd">
<!-- Creator: CorelDRAW 2020 (64-Bit) -->
<svg xmlns="http://www.w3.org/2000/svg" xml:space="preserve" width="463.937mm" height="136.217mm" version="1.1" style="shape-rendering:geometricPrecision; text-rendering:geometricPrecision; image-rendering:optimizeQuality; fill-rule:evenodd; clip-rule:evenodd"
viewBox="0 0 35732.26 10491.37"
 xmlns:xlink="http://www.w3.org/1999/xlink"
 xmlns:xodm="http://www.corel.com/coreldraw/odm/2003">
 <defs>
  <style type="text/css">
   <![CDATA[
    .fil1 {fill:#02214E}
    .fil22 {fill:#030303}
    .fil15 {fill:#041C49}
    .fil28 {fill:#091B47}
    .fil5 {fill:#0A285A}
    .fil0 {fill:#0B275A}
    .fil27 {fill:#0B275B}
    .fil25 {fill:#3F3C3C}
    .fil20 {fill:#4A4747}
    .fil7 {fill:#936A22}
    .fil3 {fill:#9C6F1D}
    .fil4 {fill:#AB8D41}
    .fil8 {fill:#AF8048}
    .fil21 {fill:#B6852A}
    .fil12 {fill:#B6913D}
    .fil29 {fill:#B89C51}
    .fil17 {fill:#B9923D}
    .fil9 {fill:#BC9542}
    .fil16 {fill:#C89A48}
    .fil24 {fill:#C9A754}
    .fil14 {fill:#CBAE5D}
    .fil6 {fill:#D2B03D}
    .fil2 {fill:#D2B871}
    .fil23 {fill:#DBBC74}
    .fil19 {fill:#E7CB84}
    .fil26 {fill:#F2DB8D}
    .fil11 {fill:#F4DF9C}
    .fil18 {fill:#F9E499}
    .fil13 {fill:#F9EFAE}
    .fil10 {fill:#FCEEB3}
   ]]>
  </style>
 </defs>
 <g id="Layer_x0020_1">
  <metadata id="CorelCorpID_0Corel-Layer"/>
  <g id="_2390752202144">
   <path class="fil0" d="M19473.44 1766.1l-81.52 0 0 380.39 353.23 0c-107.34,223.71 34.88,2417.22 -54.99,2662.09 -96.54,263.02 -354.61,-33.03 -243.89,489.73l1277.03 0 0 -380.39 -326.05 0c78.28,-163.15 27.17,-1236.68 27.17,-1521.57 74.32,-19.84 815.12,-546.58 815.12,461.9 0,236.01 40.3,882.71 -62.91,1023.92 -59.34,81.19 -126.87,64.67 -235.96,90.08 33.62,158.75 -6.45,167.31 27.17,326.05l1277.02 0 0 -380.39 -298.87 0c0,-525.19 77.52,-1494.16 -173.93,-1863.89 -203.39,-299.05 -639.83,-344.65 -1014.26,-193.76l-333.39 155.69 0 -1385.71c-553.83,0 -360,135.85 -950.98,135.85z"/>
   <path class="fil0" d="M23440.38 4917.91c0,-176.8 -36.23,-1414.38 32.45,-1516.29 75.51,-112.05 482.58,-345.95 734.91,69.66 181.58,299.07 202.15,1108.03 -93.39,1386.99 -220.21,207.85 -409.22,121.32 -673.97,59.64zm0 -1901.96l-31.82 -216.58c-427.44,-2.12 -155.06,45.41 -530.68,115.99 -123.39,23.19 -309.78,46.25 -470,46.25l0 380.39 353.22 0c-2.7,121.04 -28.46,190.77 -27.53,352.86l0.54 2011.18c3,553.48 -102.88,421.93 -299.06,516.06 0,68.21 -3.46,137.95 4.28,205.16 14.48,125.8 49.38,93.72 77.23,93.72l1222.69 0 0 -380.39 -298.87 0 0 -842.29c491.02,114.39 862.89,147.19 1284.55,-291.36 610.56,-635.03 427.74,-2235.53 -632.45,-2235.53 -318.61,0 -450.29,137.76 -652.09,244.54z"/>
   <path class="fil1" d="M9746.29 3070.3c31.82,136.6 78.48,213.58 118.73,343.17 41.62,133.95 73.57,248.5 104.66,384.41 310.14,1355.61 -133.39,2762.66 -1085.54,3708.57 -167.7,166.6 -329.94,275.95 -489.71,406.93l-279.47 182.43c-284.14,163.7 -601.06,314.59 -933.7,397.67 -427.2,106.69 -316.13,9.26 -339.75,391.73 -9.31,150.84 -29.67,213.4 -29.67,352.86 140.39,-32.7 275.45,-54.96 424.22,-92.03 153.04,-38.12 265.78,-79.18 394.38,-121.87 773.25,-256.7 1465.78,-763.9 1988.14,-1381.04 52.87,-62.47 81.26,-77.81 128.07,-143.63 662.54,-931.51 950.62,-1691.51 950.62,-2934.8 0,-588.39 -118.78,-1110.47 -318.22,-1610.91 -56.7,-142.29 -170.71,-336.86 -198.02,-454.08l-54.35 0c-38.08,163.44 -154.8,323.27 -259.73,446.72 -68.89,81.06 -71.27,56.45 -120.67,123.87z"/>
   <path class="fil1" d="M3361.16 8368.61c15.69,-188.54 159.08,-442.96 244.54,-570.59 -83.16,-124.18 -257.8,-218.81 -399.55,-388.4l-361.53 -453.6c-386.42,-544.2 -680.6,-1226.49 -706.97,-2012.64 -21.84,-651.07 21.41,-1105.72 256.81,-1725.77 150.05,-395.22 347.3,-715.91 597.77,-1032.48 69.53,-87.89 207.31,-213.84 233.07,-310.34 -176.26,14.66 -220.68,100.21 -541.96,25.72 -74.45,-17.26 -144.26,-52.89 -218.82,-52.89 -119.02,0 -555.1,857.37 -648.21,1090.71 -239.08,599.1 -328.17,1022.54 -338.22,1711.92 -0.55,38.36 8.48,177.95 7.93,267.86 -4.58,743.45 344.38,1631.54 718.06,2243.72 188.53,308.85 547.89,712.99 810.32,955.79 71.46,66.11 254.78,226.43 346.77,250.99z"/>
   <path class="fil0" d="M11403.72 1983.47c0,369.62 -27.17,638.17 -27.17,1005.31l353.22 0c0,-586.06 201.54,-760.78 787.96,-760.78l0 2391.03c0,455.2 -353.23,235.87 -353.23,407.56 0,194.74 -26.82,271.71 81.52,271.71l1358.54 0 0 -380.39 -380.39 0c0,-207.28 27.17,-302.99 27.17,-516.25l0 -2173.66c531.3,0 787.95,109.32 787.95,760.78l353.22 0 -27.17 -1086.83 -2961.61 0 0 81.52z"/>
   <path class="fil2" d="M4257.8 6249.41c-147.62,206.94 10.49,957.42 -60.92,1215.98 -29.59,107.15 -218,231.12 -296.59,328.34 -65.14,80.59 -210.46,274.55 -240.25,370.53 27.87,61.71 -15.6,136.71 -15.98,229.78 59.59,58.95 70.56,82.72 82.21,180.04 79.3,-133.25 -24.47,-58.63 108.32,-68.17l226.37 1.52c48.52,9.27 73.82,7.37 142.49,-2.83 62.2,-30.92 -23.66,49.08 29.09,-30.78 14.5,-21.96 19.49,-34.26 35.13,-66.49 29.34,-60.46 46.44,-99.23 65.94,-147.41 79.62,-247.02 496.98,-471.07 880.3,-447.27 434.91,27 653.26,275.11 811.35,559.3 6.2,5.61 13.4,7.35 16.24,19.15 2.77,11.54 12,14.28 15.77,18.82l84.94 86.65c109.04,53.06 -6.96,5.54 77.16,4.66l206.84 -13.88c2.53,-2.87 7.86,-12.21 12.74,-17.53l34.23 112.86c35.04,-67.48 68.17,-39 128.45,-66.89l74.39 -65.53c-63.19,-441.64 -344.05,-673.61 -497.88,-860.79 -81.36,-99 -45.53,-180.71 -45.53,-416.37l1327.15 -902.84c89.51,-92.99 49.63,-37.28 31.39,-102.34 -93.5,-18.67 -119.68,23.34 -191.99,74.05 -59.76,41.91 -125.97,80.23 -188.26,116.15l-1023.89 731.45c-59.69,28.49 -7.52,-37.76 -183.08,-3.37l-105.92 23.38c3.93,-8.32 10.37,-17.58 13.98,-23.79 100.2,-172.28 60.56,-101.73 -19.19,-73.74l-81.17 4.75c-1.84,-0.14 -9.29,-0.7 -11.11,-0.84 -1.86,-0.13 -9.52,-0.72 -11.31,-0.83 -1.76,-0.12 -9.59,-0.67 -11.17,-0.75 -67.57,-3.89 30.11,-35.68 -30.98,-0.78 -0.71,0.68 -82.82,201.57 -123.29,62.25 -12.97,180.53 -34.46,108.77 -53.81,107.81l-16.76 -363.77c-174.59,71.08 -135.08,111.05 -126.37,293.38 3.41,71.53 34.08,77.34 -87,88.71 -54.72,5.14 -160.49,-1.7 -221.22,-1.7 0,-257.99 -80.71,-498.22 18.27,-606.64l644.92 -441.92c145.88,-101.08 557.74,-416.34 668.18,-445.83l27.17 -162.89c-160.62,78.04 -638.03,429.88 -853.25,581.67 -259.35,182.91 -284.97,240.06 -447.07,227.4 -86.85,-6.79 65.27,-27.58 -39.82,6.74l-73.09 15.77c-1.4,-0.03 -7.99,-0.61 -9.4,-0.69l-124.84 -14.7c-148.2,-33.62 -303.93,-31.86 -450.79,25.34 -5.67,2.2 -19.3,17.31 -23.53,10.46 -4.47,-7.25 -16.04,8.75 -24.7,11.46 -7.09,-133.14 21.97,-102.61 -72.84,-157.01z"/>
   <path class="fil3" d="M2817.88 1358.54c65.68,-20.06 112.19,-24.59 193.68,-18.02 76.94,6.21 35.5,0.2 136.29,-6.1 135.19,-8.44 692.92,33.7 875.07,8.93 435.64,-59.23 1250.26,-11.98 1729.28,-11.98 0,162.64 33.27,123.29 -81.52,135.85 0,90.12 2.52,183.85 -0.04,273.53l-2.27 243.26c9.5,179.49 9.36,419.16 1.82,599.25 -23.96,572.73 -48.29,1409.35 -21.16,1919.09 10.19,191.49 23.12,566.71 -5.51,735.78l143.73 -66.62 -1.96 -341.21 5.08 -605.81 9.9 -1265.3 7.77 -1175.8c29.94,48.24 54.69,90.3 92.03,133.71l96.84 -30.66c125.59,-21.88 79.74,-21.97 101.3,27.39 1.46,3.36 4.6,12.17 5.37,15.97 30.68,152.2 -0.29,54.62 -15.03,70.52 96.1,-53.41 -69.09,-24.36 64.16,-43.57 68.11,-9.82 37.66,102.34 18.2,8.46 81.49,-29.53 -26.02,52.23 23.91,-52.61l221.49 -104.18c-7.23,88.4 2.49,41.85 -21.67,105.69 -73.17,193.34 42.72,-54.09 -45.06,77.85 -2.96,4.45 -9.41,11.82 -13.63,18.08 99.62,-21.23 36.21,74.35 122.68,90.48 0,-147.95 -0.61,-295.98 -0.45,-443.91l0.45 -1031.67 -3452.89 0 -146.89 47.24c-25.77,98.06 -14.43,278.54 -12.69,353.23 1.69,72.8 2.94,105.58 2.67,163.11 -0.49,105.73 -6.6,59.59 -30.95,170.03z"/>
   <path class="fil0" d="M15506.5 3151.81l163.03 0c185.02,0 298.87,223.4 298.87,407.56l0 108.68 -842.29 0c4.9,-219.81 169.8,-516.25 380.39,-516.25zm54.35 2228.01c573.94,0 1114,-436.29 1114,-597.76 0,-79.6 -157.39,-177.2 -217.37,-217.36 -227.29,339.43 -1138.09,668.27 -1338.47,-183.09 -25.25,-107.25 -3.47,-269.1 -47.24,-360.33l1603.08 -27.17c0,-1431.54 -1410.56,-1450.11 -1977.1,-835.92 -197.01,213.58 -336.31,517.11 -340.8,921.41 -8.18,738.39 439.64,1300.23 1203.89,1300.23z"/>
   <path class="fil0" d="M16946.55 4129.96c0,141.92 47.89,393.85 92.14,505.63 406.66,1027.24 1821.27,895.07 2217.39,146.48l-210.98 -223.76c-212.91,148.98 -295.11,359.62 -767.17,359.62 -816.42,0 -734.46,-1766.1 -135.85,-1766.1 542.46,0 353.22,152.81 353.22,380.39 0,552.52 1002.74,274.46 566.74,-403.71 -434.32,-675.57 -2115.48,-415.62 -2115.48,1001.47z"/>
   <path class="fil0" d="M30993.86 2119.32c0,461.41 -9.99,298.87 326.05,298.87l0 2418.2c0,259.34 -31.49,407.56 -298.87,407.56l0 326.05 1304.2 0 0 -380.39 -326.05 0c68.11,-292.35 27.17,-2781.68 27.17,-3287.66l-244.54 0c-97.9,0 -42,62.6 -367.67,121.41 -154.56,27.91 -420.29,-38.03 -420.29,95.96z"/>
   <path class="fil4" d="M6907.07 5630.92l9.5 -854.62 -2.97 -517.35 14.73 -793.34c93.56,39.36 74.28,43.6 131.18,11.83 83.46,-46.6 -48.2,10.8 62.2,-37.73 28.67,41.24 14.49,31.93 60.68,70.56 55.23,46.17 0.27,8.67 180.97,11.16 1.34,0.02 7.97,-0.63 9.37,-0.49 1.48,0.14 8.41,0.17 9.97,0.51 1.69,0.36 8.87,1.59 10.63,2.21 109.94,39.37 26.59,77.78 125.64,40.57 5.13,-1.93 38.17,-22.72 46.32,-26.65 -10.49,99.22 -40.26,48.22 34.54,103.16l0 -434.59c509.72,0 1073.59,23.07 1576.43,0.52 236.96,-10.62 402.64,-129.07 522.67,-265.29 148.09,-168.05 188.07,-335.05 317.87,-523.19 -7.26,-5.4 -27.56,-32.05 -32.99,-37.92 -4.64,-5.01 -10.4,-12.13 -15.39,-17.25 -72,-73.78 -102.7,-71.47 -137.76,-62.93 -105.05,25.59 -69.98,65.94 -75.93,98.36 -4.47,-6.16 -8.53,-15.48 -11.85,-19.52l-43.75 -47.64c-63.88,-43.66 -88.26,-7.11 -155.74,-65.87l-43.49 -66.04c-26.6,35.29 48.04,28 -66.78,28l-28.68 95.93c-54.61,12.7 -21.77,15.71 -65.67,-2.44 -232.9,55.76 -1379.42,15.8 -1738.92,15.8l0 -204.29c-117.1,-15.04 -60.52,-9.35 -86.42,-81.05 -37.15,-102.85 47.33,60.62 -22.27,-77.2 -132.6,52.22 -157.94,324.95 -328.2,150.3 -106.93,-109.68 -96.36,11.08 -131.01,-150.65 -0.78,-3.63 -1.93,-11.48 -2.89,-15.19 -56.89,-219.02 -41.85,-19.21 -32.36,-217.56 0.72,-14.94 4.52,-18.15 7.8,-26.89 -32.09,29.82 7.96,33.24 -71.38,-6.15 -24.93,152.88 -8.95,399.99 -9.61,445.68l-16.39 3477.23z"/>
   <path class="fil5" d="M28983.22 3206.15c0,416.94 -62.19,353.22 326.05,353.22l0 1168.34c0,501.24 212.1,923.81 706.44,923.81 275.05,0 416.72,-16.91 647.66,-167.47 71.68,-46.74 117.72,-87.29 174.23,-151.82l156.26 -196.95c-54.82,-81.87 -137.77,-188.86 -244.54,-217.36 -51.33,34.37 -748.54,801.36 -734.55,-381.34l28.11 -1004.37 597.76 0c0,-509.2 116.88,-407.56 -597.76,-407.56 0,-701.31 83.55,-597.76 -326.05,-597.76 -135.63,0 -110.25,377.04 -501.35,558.31 -115.91,53.72 -232.26,5.9 -232.26,120.97z"/>
   <path class="fil6" d="M236.52 1630.24c0,-45.97 79.7,-38.12 34.39,0l-10.04 1.49c-27.43,0.57 -24.35,60.29 -24.35,-1.49zm244.54 -54.34c62.88,-85.83 98.52,-54.35 244.54,-54.35 -36.26,31.52 -28.68,34.6 -87.29,48.57 -50.11,11.94 -105.66,5.78 -157.24,5.78zm-135.85 -108.68c1.46,-11.8 123.27,-48.68 36.25,1.86 -47.44,27.55 -41.37,39.31 -36.25,-1.86zm652.09 -81.52l217.37 0c-37.46,51.88 -122.41,68.56 -180.79,41.54 -28.93,-13.39 -34.05,32.22 -36.58,-41.54zm-298.87 27.17c72.99,-69.23 72.05,-105.45 217.36,-108.68l0 54.35c-113.61,26.46 -74.66,51.16 -217.36,54.34zm-597.76 -190.19l81.51 0 0 54.34c-79.44,-19.02 -39.14,3.5 -81.51,-54.34zm842.29 -81.52l190.19 0c76.52,0 50.31,11.75 81.52,54.35l-353.22 0c31.82,-45.8 3.89,-54.35 81.51,-54.35zm-570.59 0c182.71,4.07 136.04,92.38 298.88,135.85 -100.72,137.47 -137.52,-38.43 -298.88,-81.51l0 -54.35zm298.88 27.17c28.14,-105.36 36.68,-105.86 163.03,-108.68 -49.81,74.38 -50.73,99.34 -163.03,108.68zm-434.73 -108.68c29.44,-13.02 -8.43,-49.94 32.33,-0.41 28.91,35.13 7.39,0.03 22,54.75 -105.49,-28.17 -53.41,-52.56 -54.34,-54.35zm326.05 -54.34c0,-73.78 97.2,-0.02 24.35,1.48 -27.44,0.57 -24.35,60.29 -24.35,-1.48zm652.1 -108.69l0 54.35 -407.56 0c56.15,-76.65 20.2,-53.94 160.39,-56.98 78.54,-1.69 166.9,2.63 247.17,2.63zm-543.42 -81.51c28.88,-28.88 103.07,43.12 30.27,14.12 -0.62,-0.25 -75.77,31.39 -30.27,-14.12zm-244.54 -271.71c29.44,-13.02 -8.43,-49.94 32.33,-0.4 28.91,35.13 7.4,0.02 22.01,54.75 -105.49,-28.17 -53.41,-52.56 -54.35,-54.35zm869.47 163.03c-219.84,0 -202.11,34.92 -319.64,-87.93 -100.09,-104.62 -113.89,-102.27 -305.29,-102.27 50.38,-69.76 62.42,-40.64 135.49,-40.03 235.6,1.92 129.91,49.69 312.54,135.41 108.81,51.08 115.06,10.42 176.9,94.82zm-747.2 -271.71l-40.76 0 40.76 0 0 0zm448.32 -54.34c0.28,-0.12 705.45,-148.32 733.61,190.19 -335.76,-27.94 -561.33,44.95 -733.61,-190.19zm-149.43 -108.68l40.75 0 -40.75 0 0 0zm285.29 -81.52c363.04,0 548.39,-55.54 684.28,130.85 41.87,57.43 98.25,160.79 130.85,222.37 -206.36,-17.17 -62.37,-171.41 -327.43,-270.32 -131.53,-49.09 -391.34,-28.55 -569.21,-28.55 31.82,-45.8 3.9,-54.35 81.51,-54.35zm-217.36 -81.51l54.35 0 0 81.51c-104.12,-72.35 -11.45,0.13 -54.35,-81.51zm1902.09 1249.86c24.35,-110.44 30.45,-64.3 30.95,-170.03 0.27,-57.53 -0.98,-90.31 -2.67,-163.11 -1.74,-74.69 -13.08,-255.17 12.69,-353.23l146.89 -47.24c-102.37,-44.64 -18.89,27.25 -169.59,-41.17 -83.29,-37.81 -642.3,-13.17 -752.01,-13.17 -152.58,-227.84 -158.48,-458.19 -463.98,-488.93 -222.67,-22.4 -160.58,-8.21 -350.82,0.51 -285.38,13.07 -154.94,-82.16 -407.89,-82.16 -123.37,233.15 -159.3,185.84 -163.03,353.22 -243.55,-163.09 -189.07,-148.12 -363.71,128.05 -98.17,155.24 51.17,216.36 119.17,252.34 143.41,-75.89 132.73,-131.02 295.26,-108.89 117.47,16 175.93,100.45 248.15,163.23 -322.17,0 -102.24,-81.51 -380.38,-81.51 -142.18,212.31 -160.1,194.48 -163.03,326.05 -147.72,-39.44 -56.16,-81.51 -298.88,-81.51l-127.17 201.94c-63.66,104.31 -5.06,157.05 45.66,232.79 207.74,0 105.86,-42.87 271.71,-81.51 -37.87,51.68 -3.02,-0.32 -39.8,41.71 -262.28,299.59 -181.39,353.84 -41.71,447.37 50.12,-26.52 125.97,-83.14 174.67,-97.04 86.85,-24.78 211.01,-14.86 268.15,-30.72 240.46,-66.74 -48.08,-119.48 453.72,-116.87l862.61 -10.07c109.91,-36.85 69.16,16.05 -20.23,-152.87l815.26 -27.16z"/>
   <path class="fil7" d="M6784.68 5763.62c126.8,16.83 128.72,-18.2 122.39,-132.7l16.39 -3477.23c0.66,-45.7 -15.32,-292.81 9.61,-445.68 -17.75,-123.52 -32.74,-225.26 30.71,-333.39 89.44,-4.79 9.73,27.1 54.61,23.43 150.67,-12.32 132.81,46.78 132.73,-107.8 60.38,58.87 45.12,-65.2 57.3,108.69l30.02 -33.55c63.65,-49.88 44.49,-30.58 133.06,-12.1 150.24,31.34 22.55,1.39 111.78,-22.6 147.62,-39.7 -11.38,370.8 116.52,515.58l-1.02 -380.12c6.25,-71.35 34.29,-141.27 46.98,-114.64 2.87,6.02 14.93,-5.43 18.92,-6.08l894.42 13.11c43.9,-43.8 10.17,-19.54 86.69,-20.9 5.09,-0.09 13.55,0.42 18.86,0.53 18.22,0.36 57.44,3.91 58.57,3.94l690.88 16.42c16,148.15 2.78,45.25 43.76,84.78l5.73 -177.39c285.7,47.01 4.11,-72.31 255.86,21.79 148.38,55.46 -106.43,25.1 28.86,6.26l49.3 -22.24c1.46,-0.14 8.41,-0.08 9.85,0.06 61.95,6.42 191.5,140.83 237.71,168.1 -39.11,-247.8 -190.64,-529.09 -352.11,-653.07 -260.37,-199.93 -379.51,-161.91 -816.24,-161.91 -661.15,0 -1322.31,0 -1983.47,0 0,137.53 26.29,151.79 -108.68,163.02l0 4975.67z"/>
   <path class="fil5" d="M13876.25 6385.14l-2852.93 0 0 271.7c247.39,0 527.28,18.52 767.42,-15.57l2330.05 -11.59c511.46,0 660.08,-27.4 1114,-27.18l6520.99 -54.34c0,-327.13 83.1,-244.54 -950.98,-244.54l-896.18 27.47c-697.43,-2.1 -1395.14,-0.29 -2092.61,-0.29l-3852.16 41.1c-67.82,5.78 -3.02,13.25 -87.6,13.25z"/>
   <path class="fil5" d="M24282.67 6303.62l0 244.54c391.28,0 2023.41,25.66 2272.43,-12.88 25.35,-3.92 51.45,-8.34 94.09,-11.34 80.15,-5.64 161.31,-3.23 241.78,-3.02l4945.21 -27.06c203.82,0.46 319.22,-26.2 487.97,-28.29l1525.06 3.44c124.07,1 206.94,33.09 181.26,-159.04 -10.37,-77.64 12.08,-17.08 -20.66,-87.85 -1756.42,0 -3091.27,27.17 -4836.4,27.17 -472.96,0 -699.79,27.17 -1168.35,27.17l-3722.39 27.16z"/>
   <path class="fil5" d="M32678.45 3233.32l-81.51 0 0 380.39 326.05 0c0,176.1 -28.62,244.09 -27.53,434.37l-5.25 972.91c-24.69,160.55 -72.64,218.65 -266.1,222.96l0 326.05 1277.02 0 0 -380.39 -298.87 0 0 -2092.14c-566.55,0 -297.97,135.85 -923.81,135.85z"/>
   <path class="fil8" d="M4085.46 9886.87l-29.64 -84.92c47.54,17.08 30.38,53.49 85.72,41.41 117.56,-25.65 -66.67,57.24 27.48,-17.19l28.07 -32.99c3.6,-4.06 8.82,-13.7 14.32,-19.66 8.44,107.84 -28.07,60.74 40.02,96.94 36.3,19.3 124.45,-22.76 180.22,-27.02 167.5,-12.81 42.62,63.03 194.47,7.16l328.15 -29.31c76.77,28.37 -32.33,44 229.24,-6.9l207.7 -10.42c1.42,0.29 7.95,1.62 9.43,1.92 148.37,29.92 87.62,-58.07 207.87,4.47 122.85,63.9 11.95,59.54 133.68,36.82 127.28,-23.75 -0.84,-19.95 120.67,8.06 144.86,33.39 152.04,-55.24 241.96,-3.29l86.91 59.11 76.68 -31.15c87.29,-98.52 125.12,-133.73 190.62,-261.06 44.79,-87.09 115.75,-212.11 150.42,-311.47 120.7,-345.89 88.9,-475.94 66.53,-857.15l-74.39 65.53c-60.28,27.89 -93.4,-0.59 -128.45,66.89l-34.23 -112.86c-4.88,5.32 -10.21,14.66 -12.74,17.53l-206.84 13.88c-84.12,0.88 31.88,48.4 -77.16,-4.66l-84.94 -86.65c-3.77,-4.54 -13,-7.28 -15.77,-18.82 -2.83,-11.8 -10.04,-13.53 -16.24,-19.15 34.78,198.9 81.56,278.89 64.93,472.71 -22.52,262.32 -162.88,432.16 -163.17,431.41 -1.59,-4.07 -7.73,10.03 -11.8,14.87 -77.06,92.13 -87.02,147.6 -188.99,220.04 -611.33,434.29 -1393.57,160.61 -1530.1,-646.95 -22.85,-135.15 7.33,-151.34 7.33,-359.43 -68.68,10.21 -93.97,12.1 -142.49,2.83l-226.37 -1.52c-132.79,9.54 -29.02,-65.08 -108.32,68.17 -11.65,-97.32 -22.62,-121.09 -82.21,-180.04 -25.39,33.46 -9.52,-17.41 -39.5,79.79 -110,356.75 90.56,1194.99 480.9,1413.04z"/>
   <path class="fil9" d="M26374.83 2554.05l0 0zm0 0c-78.08,116.6 -188.86,203.25 -292.14,305.61 -62.22,61.66 -91.63,90.7 -142.86,155.91 -80.76,102.82 -88.69,76.62 -135.59,217.61 112.08,20.73 6.99,102.96 269.78,35.12 77.4,-19.98 -30.44,-17.95 19.84,-7.82l-17.77 135.85c118.93,-74.75 41.41,-83.87 209.86,-251.91 385.43,-384.52 959.02,-507.28 1473.18,-235.75 42.99,22.71 84.97,53.7 129.95,87.42 339.33,254.43 286.25,386.06 414.01,481.74l-0.11 -59.97 151.04 5.25c5.64,-0.18 21.71,-8.35 67.32,0.25 -104.92,-315.41 -326.82,-561.02 -530.79,-800.44 -3.65,-4.28 -8.67,-10.57 -12.35,-14.83l-108.63 -108.74c-124.7,-108.57 -135.64,-145.42 -326.39,-189.86 52.58,-78.52 50.12,-56.54 81.73,-162.26l81.29 -217.99c-89.19,53.38 -85.1,54.01 -112.15,139.25 -130.8,-87.4 7.39,-58.19 -138.62,-67.52 -221.63,-14.16 -244.44,21.11 -450.95,-12.61l-329.19 38.64c-186.53,3.42 -401.6,-75.53 -409.28,-206.58l-108.55 81.51 141.16 157.95c-77.05,103 -202.01,113.64 -222.81,280.31 -9.62,77 9.09,160.86 49.98,190.99 51.83,38.19 164,22.84 249.04,22.84z"/>
   <path class="fil10" d="M5785.28 4830.29l1.96 341.21 -143.73 66.62 -717.38 483.97c-130.96,86.76 -219.45,163.97 -353.33,244.43 -69.83,41.97 -134.78,60.54 -196.5,102.51 -141.55,96.26 -53.42,122.28 -118.5,180.39 94.8,54.4 65.75,23.88 72.84,157.01 8.66,-2.71 20.23,-18.71 24.7,-11.46 4.23,6.85 17.86,-8.26 23.53,-10.46 146.85,-57.2 302.59,-58.96 450.79,-25.34l124.84 14.7c1.4,0.08 7.99,0.65 9.4,0.69l73.09 -15.77c105.09,-34.32 -47.04,-13.52 39.82,-6.74 162.1,12.66 187.72,-44.49 447.07,-227.4 215.22,-151.8 692.63,-503.63 853.25,-581.67l81.51 -0.15 0 -694.9c-84.6,-94.31 -130.04,-69.95 -267.57,-25.29 -212.85,69.12 -121.24,-41.81 -240.7,87.31l-76.23 -82.19c-17.84,-11.11 5.36,-24.45 -88.85,2.54z"/>
   <path class="fil11" d="M27570.34 4265.81c3.87,-173.59 37.23,-150.65 217.36,-108.68l0 54.34c-98.17,8.17 -129.48,33.87 -217.36,54.35zm271.71 -135.85l8.1 8.1c-0.53,-0.53 -10.81,-5.4 -8.1,-8.1zm-326.05 0c-1.84,82.78 -12.27,99.05 -27.16,163.03l-81.52 0c2.36,-6.53 9.47,-21.95 10.81,-17.81l25.96 -53.24c20.48,-84.14 23.69,-22.59 -9.6,-91.98l81.51 0zm0 0c16.46,-88.94 -34.6,-37.89 54.35,-54.34l-54.35 54.34zm271.71 -81.51c27.11,-9.59 -14.63,-76 54.35,54.34 -105.49,-28.17 -53.41,-52.56 -54.35,-54.34zm-217.36 27.17c56.02,-48.69 40.87,-46.44 135.85,-54.35l0 54.35 -135.85 0zm217.36 -353.23c-112.65,-54.04 -163.03,14.49 -163.03,-135.85 0,-77.88 59.57,-98.81 102.54,-94.14 49.14,5.34 71.2,42.02 102.5,78.24 2.74,3.17 7.93,10.84 12.34,15.9 -12.38,53.13 -27.4,99.64 -54.35,135.85zm-2228.01 -128.8c69.53,121.26 -46.54,121.29 -48.25,481.94 -0.75,158.13 67.49,452.57 125.73,467.49 102.96,26.37 125.63,24.97 214.53,-8.53 6.02,-2.26 25.86,-10.76 34.05,-14.62 364.86,-145.27 495.56,-379.36 966.43,-244.13 41.1,11.8 60.75,17.23 111.19,26.14 186.48,32.94 257.85,2.89 389.6,72.6 -1.85,82.78 -12.27,99.05 -27.17,163.03 -226.54,0 -528.7,-39.92 -597.76,54.34l298.59 16.43c58.4,0.52 196.57,23.31 309.3,-33.77 106.55,-53.94 65.8,-73.16 85.9,-162.58 23.78,-105.76 139.41,-66.61 342.93,-143.25 179.15,-67.46 168.73,-72.51 321.83,31.02l56.93 -112.41c45.8,-185.21 -18.65,-671.98 -192.79,-690.35 -39.7,33.43 -12.92,-69.09 6.31,70.16 10.22,74.03 -3.9,47.21 -6.31,155.27 -138.8,-101.69 53.31,-291.63 -271.71,-298.87 -33.91,30.72 -35.34,31.45 -81.51,54.34 -22.32,95.81 -27.17,89.27 -27.17,217.37l190.19 108.68 -151.25 0c-27.05,53.19 -15.66,-35.19 -12.92,91.74 -4.05,-6.62 -7.89,-16.08 -10.88,-20.58l-205.34 -152.54c-38.36,51.77 -66.66,29 -105.49,140.48l-34.98 99.42c-2.73,5.42 -7.71,11.35 -10.51,16.74l-27.99 54.95c-11.15,27.23 -9.99,83.47 -50.3,103.41 -92.15,45.6 0.99,3.43 -45.77,-2.83 -52.54,-7.03 -86.15,-98.71 -105.36,76.76l-81.51 0c-29.14,-109.15 -7.37,-78.64 -135.85,-81.51l0 81.51c-131.4,-96.27 23.96,-219.24 -217.36,-163.02 13.99,-168.06 117.67,-106.41 -35.58,-205.77 -93.88,-60.86 -4.39,50.46 -89.38,-65.94 46.07,-113.38 23.58,-87.59 -2.82,-167.95 -2.68,-8.16 -13.99,-47.39 -18.8,-63.15 -122.1,30.31 -107.24,62.09 -111.56,-34.97l-95.07 48.57c-260.22,585.02 117.83,716.33 -190.2,788.09 -215.13,-448.36 62.7,-817.25 54.48,-950.98l17.77 -135.85c-50.28,-10.13 57.56,-12.16 -19.84,7.82 -262.79,67.84 -157.7,-14.39 -269.78,-35.12 -77.67,4.92 21.69,-34.17 -41.71,18.13 -6.39,5.28 -34.5,37.55 -35.42,38.76l-167.41 303.51z"/>
   <path class="fil12" d="M28457.58 4754.89c-39.36,-75.69 -62.02,-39.94 -235.14,-26.9l-54.35 -69.46c-189.57,383.33 -809.44,650.65 -1380.34,471.38l-325.79 -163.29c-73.43,-55.94 -62.39,-34.65 -87.15,-103.04 495.22,0 315.63,191.45 869.88,163.61 192.75,-9.68 427.12,-98.15 575,-212.58 94.79,-73.34 102.07,-97.14 131.03,-168.26 -74.32,77.15 -78.67,105.49 -208.6,119.79l-236.67 -27.69c-2.38,-5.66 -8.52,-16.52 -10.9,-21.65 -2.59,-5.58 -12.78,-8.7 -14.96,-21.73 -2.32,-13.86 -11.82,-14.5 -17.82,-21.68 -332.92,148.08 -52.97,165.31 -624.34,135.49 -446.76,-23.31 -331.24,-104.25 -734.33,109.04 -84.71,-126.5 -204.92,-207.61 -217.36,-398.03 -8.19,3.86 -28.04,12.35 -34.05,14.62 -88.9,33.5 -111.57,34.9 -214.53,8.53 -58.23,-14.92 -126.48,-309.36 -125.73,-467.49 1.71,-360.65 117.79,-360.68 48.25,-481.94 -150.55,409.57 -170.78,798.15 45.2,1170.44 396.34,683.22 1347.77,874.9 2047.08,615.89 258.93,-95.9 784.29,-405.34 805.61,-625.04z"/>
   <path class="fil13" d="M6907.07 5630.92c6.33,114.5 4.41,149.53 -122.39,132.7 -64.93,113.55 2.35,38.31 -106.2,107.55 -155.73,99.33 -861.86,546.34 -922.96,649.82 55.86,141.78 71.95,-19.89 404.58,-112.33l362.22 -72.41c76.9,-9.34 49.06,-52.36 141.78,-24.35l331.75 29.06c125.19,-14.68 4.54,50.36 115.03,17.13 62.29,-35.91 128.5,-74.23 188.26,-116.15 72.31,-50.71 98.49,-92.72 191.99,-74.05 44.61,-23.65 80.53,-52.37 135.85,-81.65 -68.82,-143.44 -27.16,-954.03 -27.16,-1195.65 -28,-11.07 -51.2,-20.24 -77.24,-30.28l-215.39 -12.32c-107.44,8.73 -34.34,71.85 -173.03,36.18l-217.58 -107.88 -9.5 854.62z"/>
   <path class="fil14" d="M26211.8 3559.24l95.07 -48.57c4.32,97.06 -10.54,65.28 111.56,34.97 4.81,15.76 16.12,54.98 18.8,63.15 26.39,80.36 48.89,54.57 2.82,167.95 106.46,-7.21 56.86,22.36 121.37,-35.08 72.68,-64.7 8.11,-72.93 6.28,-77.36 -25.61,-61.93 -36.92,21.05 -41.98,-81.07 -4.32,-87.19 38.92,-23.47 44.68,-23.12 56.39,3.36 -13.61,88.57 77.34,-2.38 84.89,-84.9 -66.21,-137.95 49.96,-148.19 52.1,-4.59 15.61,15.45 111.85,41.15 83.48,-61.17 43.84,17.5 54.35,-108.68l81.51 0c8.32,99.96 8.71,100.36 108.68,108.68 21.86,-81.86 -0.34,-59.66 81.51,-81.52 45.78,110.81 -58.23,187.4 163.03,135.85 -8.78,105.56 -24.51,70.79 -27.17,190.2 48.23,23.14 33.53,24.28 108.68,27.3l205.34 152.54c2.99,4.5 6.83,13.96 10.88,20.58 -2.74,-126.93 -14.13,-38.55 12.92,-91.74 -1.81,-5.14 -7.65,-17.41 -8.83,-13.77 -1.21,3.72 -7.49,-11.33 -9.18,-13.96 -157.47,-244.68 21.23,-113.63 -102.44,-298.32 86.75,18.38 42.31,27.42 108.68,0 -13.99,-52.74 -4.99,-42.03 -27.17,-81.51l108.68 27.17c49.23,-68.17 120.45,-57.9 190.63,-1.86l63.62 58.85c4.18,3.93 12.23,10.4 17.46,16.44 174.14,18.37 238.58,505.14 192.79,690.35l-56.93 112.41c-36.45,119.86 -214.75,146.15 -452.31,273.59 -77.31,41.48 -84.8,55.8 -172.49,100.07 6,7.18 15.5,7.82 17.82,21.68 2.18,13.03 12.37,16.15 14.96,21.73 2.38,5.13 8.52,15.99 10.9,21.65l236.67 27.69c129.93,-14.29 134.28,-42.64 208.6,-119.79 99.76,-6.33 203.21,-252.65 227.65,-343.08 260.94,-965.49 -620.48,-1563.51 -1319.09,-1346.43 -279.9,86.98 -557.31,331.29 -647.49,602.39z"/>
   <path class="fil15" d="M4366.48 407.56c77.42,37.15 1493.32,21.23 1708.45,10.55 175.06,-8.7 150.07,16.62 247.85,16.62 152.1,0 186.1,-28.24 491.29,-18.93l921.59 18.93c103.88,0 9.89,8.34 81.52,-27.17 -62.15,-84.82 -225.93,-107.47 -342.67,-146.41 -823.35,-274.68 -1920.21,-277.68 -2744.92,-6.73 -139.47,45.82 -308.99,79.28 -363.11,153.14z"/>
   <path class="fil5" d="M16593.33 8531.63l244.54 0c5.09,-228.4 81.52,-433.24 81.52,-679.27 79.18,91.11 174.78,424.61 212.82,547.96 36.85,119.51 9.94,130.9 113.23,158.48 76.58,-56.11 84.02,-162.79 151.56,-337.52l147.32 -368.92c0,215.39 81.51,457.78 81.51,679.27l244.54 0c0,-252.65 -156.96,-950.38 -163.03,-1222.69 -242.47,0 -191.99,-9.87 -242.85,137.54 -45.56,132.03 -183.01,462.39 -191.88,568.9l-54.35 0c-57.51,-246.85 -195.37,-495.4 -244.54,-706.44l-190.19 0c-14.51,174.33 -73.11,438.43 -100.97,605.47 -32.15,192.76 -89.23,423.19 -89.23,617.22z"/>
   <path class="fil5" d="M24500.04 8531.63l244.54 0 0 -760.78c127.44,85.34 552.21,725.87 599.12,759.42 61.86,44.23 50.61,28.54 188.83,28.54l0 -1222.69 -244.54 0 0 760.78 -457.94 -601.72c-147.94,-199.53 -103.34,-186.24 -330.01,-186.24l0 1222.69z"/>
   <path class="fil16" d="M4085.46 9886.87c77.22,111.95 251.02,223.87 416.2,300.04 576.12,265.66 1403.67,88.18 1690.09,-275.83l-86.91 -59.11c-89.93,-51.95 -97.11,36.68 -241.96,3.29 -121.51,-28.01 6.61,-31.82 -120.67,-8.06 -121.74,22.72 -10.84,27.09 -133.68,-36.82 -120.25,-62.55 -59.5,25.45 -207.87,-4.47 -1.49,-0.3 -8.01,-1.63 -9.43,-1.92l-207.7 10.42c-261.57,50.9 -152.48,35.27 -229.24,6.9l-328.15 29.31c-151.85,55.87 -26.97,-19.97 -194.47,-7.16 -55.77,4.26 -143.92,46.32 -180.22,27.02 -68.09,-36.2 -31.58,10.91 -40.02,-96.94 -5.5,5.95 -10.72,15.6 -14.32,19.66l-28.07 32.99c-94.15,74.43 90.08,-8.46 -27.48,17.19 -55.35,12.08 -38.18,-24.34 -85.72,-41.41l29.64 84.92z"/>
   <path class="fil5" d="M25777.06 7933.87c0,762.25 1114,935.82 1114,-54.35l-516.24 0 0 217.37 244.54 0c-27.98,120.08 -105.96,244.54 -244.54,244.54 -447.21,0 -452.54,-815.13 0,-815.13 147.51,0 194.17,95.03 244.54,190.2 63.16,-33.43 151.33,-91.05 217.36,-108.68 -122.69,-459.51 -1059.67,-435.2 -1059.67,326.05z"/>
   <path class="fil17" d="M5800.27 2959.18l28.27 -55.25c24.91,84.48 48.34,92.43 87.1,165.95l163.02 -108.68c119.06,99.49 149.21,81.53 245.31,4.38 31.69,-25.44 27.83,4.89 53.29,-57.8 3.9,211.4 -18.24,155.85 81.38,189.55l0 -996.83c-86.46,-16.14 -23.05,-111.72 -122.68,-90.48 4.22,-6.25 10.67,-13.62 13.63,-18.08 87.78,-131.94 -28.11,115.49 45.06,-77.85 24.16,-63.83 14.44,-17.29 21.67,-105.69l-221.49 104.18c-49.93,104.84 57.58,23.08 -23.91,52.61 19.46,93.88 49.91,-18.28 -18.2,-8.46 -133.24,19.21 31.94,-9.84 -64.16,43.57 14.73,-15.9 45.7,81.68 15.03,-70.52 -0.77,-3.8 -3.9,-12.62 -5.37,-15.97 -21.57,-49.35 24.28,-49.27 -101.3,-27.39l-96.84 30.66c-37.34,-43.42 -62.09,-85.48 -92.03,-133.71l-7.77 1175.8z"/>
   <path class="fil18" d="M5755.51 6520.99c-103.42,26.05 -227.18,136.12 -329.37,190.19l27.03 108.68 16.76 363.77c19.35,0.96 40.84,72.72 53.81,-107.81 40.47,139.32 122.58,-61.57 123.29,-62.25 61.08,-34.91 -36.59,-3.11 30.98,0.78 1.58,0.08 9.4,0.64 11.17,0.75 1.79,0.12 9.45,0.7 11.31,0.83 1.83,0.14 9.27,0.7 11.11,0.84l81.17 -4.75c79.75,-27.99 119.4,-98.54 19.19,73.74 -3.61,6.21 -10.05,15.47 -13.98,23.79l105.92 -23.38c175.56,-34.39 123.39,31.86 183.08,3.37l1023.89 -731.45c-110.49,33.23 10.16,-31.81 -115.03,-17.13l-331.75 -29.06c-92.72,-28.01 -64.88,15 -141.78,24.35l-362.22 72.41c-332.62,92.44 -348.71,254.1 -404.58,112.33z"/>
   <path class="fil19" d="M5790.36 4224.48l-5.08 605.81c94.21,-27 71.01,-13.66 88.85,-2.54l76.23 82.19c119.47,-129.12 27.85,-18.19 240.7,-87.31 137.53,-44.66 182.98,-69.02 267.57,25.29l0 -707.62c-60.26,-117.94 -22.07,-260.53 -61.32,-390.74 -46.37,-66.71 17.35,-1.28 -78.25,0.77l-171.41 15.43c-4.84,1.52 -12.67,5.25 -17.2,6.56l-212.67 -6.15c-15.33,4.99 -25.37,109.11 -29.34,-68.51 -45.76,65.62 -19.97,82.21 -44.02,104.77l-10.33 -110.36c-2.58,6.26 -4.04,15.19 -4.79,19.75 -0.77,4.68 -3.4,14.48 -4.21,20.46 -17.51,129.91 7.77,354.92 -34.74,492.19z"/>
   <polygon class="fil5" points="22761.11,8531.63 23005.64,8531.63 23005.64,8015.38 23413.21,8015.38 23413.21,8531.63 23657.74,8531.63 23657.74,7336.11 23413.21,7336.11 23413.21,7798.02 23005.64,7798.02 23005.64,7336.11 22761.11,7336.11 "/>
   <polygon class="fil5" points="14854.4,8531.63 15098.94,8531.63 15098.94,8015.38 15506.5,8015.38 15506.5,8531.63 15751.04,8531.63 15751.04,7336.11 15506.5,7336.11 15506.5,7798.02 15098.94,7798.02 15098.94,7336.11 14854.4,7336.11 "/>
   <path class="fil20" d="M6268.43 9879.93l-76.68 31.15c-286.42,364.01 -1113.96,541.49 -1690.09,275.83 -165.18,-76.16 -338.98,-188.09 -416.2,-300.04 -390.34,-218.05 -590.9,-1056.29 -480.9,-1413.04 29.98,-97.21 14.11,-46.33 39.5,-79.79 0.38,-93.07 43.85,-168.07 15.98,-229.78 -299.75,475.17 -263.31,1183.04 100.32,1679.94 773.42,1056.88 2185.49,635.14 2508.07,35.74z"/>
   <path class="fil5" d="M18576.8 7716.51l112.67 351.89 -248.53 1.32c17.26,-74.08 35.31,-115.04 56.8,-187.74 31.88,-107.8 0.02,-107.58 79.05,-165.48zm-570.58 815.12l271.71 0c24.39,-104.72 60.04,-152.36 81.51,-244.54l407.56 0c21.47,92.18 57.11,139.82 81.51,244.54l271.71 0 -434.74 -1222.69 -217.36 0 -461.9 1222.69z"/>
   <path class="fil5" d="M19310.41 8531.63l244.54 0 0 -489.07c109.72,73.48 167.47,203.37 251.9,318.69 146.75,200.44 105.29,170.38 427.37,170.38 -85.92,-162.38 -338.4,-467.66 -461.91,-652.1l434.74 -543.41 -298.88 0c-59.37,88.66 -285.63,412.39 -353.22,461.9l0 -461.9 -244.54 0 0 1195.51z"/>
   <path class="fil5" d="M30097.22 7716.51c7.35,88.3 76.36,285.85 108.68,353.22l-244.54 0c7.01,-84.15 29.15,-132.23 49.65,-194.89 33.21,-101.51 15.42,-106.47 86.2,-158.33zm-570.58 815.12l271.71 0c6.4,-76.95 53.21,-185.55 81.51,-244.54l407.56 0c18.13,77.82 50.49,179.9 81.51,244.54l244.54 0 -385.94 -1108.45c-46.74,-114.88 -6.02,-114.24 -184.65,-114.24 -101.45,0 -216.05,410.71 -283.28,586.2 -77.27,201.7 -186.16,435.58 -232.97,636.49z"/>
   <path class="fil21" d="M9457.87 1443.32c-31.44,167.01 21.65,508.26 -24.79,784.07 114.82,0 40.18,7.29 66.78,-28l43.49 66.04c67.48,58.76 91.86,22.2 155.74,65.87l43.75 47.64c3.33,4.04 7.39,13.36 11.85,19.52 5.95,-32.43 -29.12,-72.78 75.93,-98.36 35.07,-8.54 65.77,-10.85 137.76,62.93 4.99,5.12 10.75,12.25 15.39,17.25 5.43,5.88 25.72,32.53 32.99,37.92 3.93,-136.43 22.64,-138.22 44.52,-255.85 20.49,-110.19 24.08,-225.48 25.12,-269.11 0.39,-15.97 12.25,-333.06 -41.24,-453.33 -46.2,-27.27 -175.75,-161.69 -237.71,-168.1 -1.44,-0.15 -8.39,-0.2 -9.85,-0.06l-49.3 22.24c-135.29,18.84 119.52,49.2 -28.86,-6.26 -251.75,-94.1 29.85,25.22 -255.86,-21.79l-5.73 177.39z"/>
   <path class="fil22" d="M34960.8 1195.51c360.34,0 624.93,242.72 624.93,624.93 0,486.99 -645.21,756.42 -1013.75,388.82 -385.4,-384.42 -56.34,-1013.75 388.82,-1013.75zm-706.45 597.76c0,182.28 89.72,372.72 209.56,496.88 387.08,401.07 958.09,245.8 1175.22,-144.6 392.63,-705.97 -544.96,-1492.59 -1161.44,-862.56 -126.3,129.07 -223.34,315.19 -223.34,510.27z"/>
   <path class="fil23" d="M6913.59 4258.96l91.28 3.58c-30.09,77.9 -35.91,33.72 48.7,109.14 49.12,-112.05 -56.33,-32.4 59.97,-108.68 20.52,66.94 -3.94,28.24 19.79,74.29 17.24,33.48 37.11,43.59 65.64,84.82 96.04,-109.44 27.53,-57.5 153.18,-30.48 74.95,16.12 44.99,-87.53 247.66,-17.28l0 -733.61c-74.79,-54.94 -45.03,-3.94 -34.54,-103.16 -8.15,3.93 -41.19,24.72 -46.32,26.65 -99.05,37.21 -15.7,-1.2 -125.64,-40.57 -1.76,-0.62 -8.94,-1.85 -10.63,-2.21 -1.56,-0.34 -8.49,-0.37 -9.97,-0.51 -1.39,-0.14 -8.03,0.51 -9.37,0.49 -180.7,-2.49 -125.73,35.01 -180.97,-11.16 -46.2,-38.63 -32.01,-29.32 -60.68,-70.56 -110.4,48.53 21.26,-8.87 -62.2,37.73 -56.9,31.77 -37.62,27.53 -131.18,-11.83l-14.73 793.34z"/>
   <path class="fil5" d="M20424.42 8531.63l624.93 0c5.55,-248.92 108.2,-217.36 -353.22,-217.36 -0.03,-0.07 -76.32,-298.88 54.34,-298.88l298.88 0 0 -217.36 -353.22 0c-60.5,-285.64 2.87,-246.48 131.89,-246.47 73.31,0.01 147.62,1.93 221.33,1.93l0 -217.36 -624.93 0 0 1195.51z"/>
   <path class="fil0" d="M27135.6 7634.99c0,461.14 461.91,249.95 461.91,570.59 0,160.68 -264.23,204.37 -326.05,-27.17 -88.84,23.72 -117.71,68.19 -163.02,135.85 96.32,360.74 760.78,338.68 760.78,-163.03 0,-412.99 -461.9,-287.67 -461.9,-543.41 0,-96.6 52.94,-81.52 163.03,-81.52 65.32,0 79.87,44.02 135.85,81.52 59.37,-88.67 78.98,-62.7 108.68,-190.2 -364.13,-243.83 -679.27,-45.41 -679.27,217.36z"/>
   <polygon class="fil5" points="12843.77,8531.63 13468.7,8531.63 13468.7,8314.26 13088.3,8314.26 13088.3,8015.38 13468.7,8015.38 13468.7,7798.02 13088.3,7798.02 13088.3,7553.48 13468.7,7553.48 13468.7,7336.11 12843.77,7336.11 "/>
   <path class="fil5" d="M28711.51 8531.63l624.92 0 0 -217.36 -380.38 0 0 -298.88c430.22,0 380.38,44.23 380.38,-217.36l-380.38 0 0 -244.54 380.38 0 0 -217.36 -624.92 0 0 1195.51z"/>
   <path class="fil5" d="M30830.83 7607.82c0,200.97 -6.92,251.29 208.24,362.35 118.25,61.04 253.67,65.65 253.67,235.41 0,160.68 -264.23,204.37 -326.05,-27.17 -93.62,25 -143.12,92.72 -190.19,163.03 4.22,4.85 10.4,6.35 12.2,14.96 1.79,8.6 9.8,11.87 12.3,14.87 12.6,15.12 19.05,24.34 36.99,44.53 256.91,289.06 699.29,108.84 699.29,-183.04 0,-550.1 -333.98,-356.33 -438.09,-543.51 -76.78,-138.04 62.02,-162.93 166.38,-162.93 65.32,0 79.87,44.02 135.85,81.52 42.23,-63.07 86.48,-107.05 108.68,-190.2 -175.17,-92.69 -141.08,-108.68 -380.39,-108.68 -145.9,0 -298.88,152.98 -298.88,298.88z"/>
   <path class="fil24" d="M5800.27 2959.18l-9.9 1265.3c42.51,-137.27 17.23,-362.28 34.74,-492.19 0.8,-5.98 3.44,-15.77 4.21,-20.46 0.75,-4.56 2.21,-13.49 4.79,-19.75l10.33 110.36c24.05,-22.56 -1.74,-39.15 44.02,-104.77 3.97,177.61 14.02,73.5 29.34,68.51l212.67 6.15c4.53,-1.32 12.35,-5.04 17.2,-6.56l171.41 -15.43c95.6,-2.05 31.88,-67.48 78.25,-0.77 39.24,130.21 1.06,272.8 61.32,390.74l0 -1042.97c-99.62,-33.7 -77.47,21.84 -81.38,-189.55 -25.46,62.69 -21.6,32.36 -53.29,57.8 -96.1,77.15 -126.25,95.11 -245.31,-4.38l-163.02 108.68c-38.76,-73.52 -62.19,-81.47 -87.1,-165.95l-28.27 55.25z"/>
   <path class="fil5" d="M13713.23 7906.7c0,773.22 839.71,734.81 859.45,523.96 4.79,-51.23 1.08,-180.96 -17.15,-225.08 -132.03,88.4 -64.61,108.68 -298.88,108.68 -306.02,0 -430.19,-550.23 -108.41,-734.07 209.5,-119.7 247.87,12.24 407.29,54.8 14.16,-34.29 23.44,-166.55 18.33,-202.68 -23.34,-165.35 -483.32,-204.47 -717.51,74.09 -89.45,106.39 -143.12,213.48 -143.12,400.3z"/>
   <path class="fil19" d="M26266 1820.44c7.69,131.05 222.75,210 409.28,206.58l329.19 -38.64c206.5,33.72 229.32,-1.56 450.95,12.61 146.01,9.33 7.82,-19.88 138.62,67.52 27.05,-85.24 22.96,-85.87 112.15,-139.25 101.2,-53.67 288.85,-214.03 326.05,-353.36 -433.13,-100.91 -457.7,272.26 -926.58,248.66 -187.86,-9.45 -133.07,-76.97 -133.07,-275.83 -198.81,-46.32 -676.66,178.16 -706.58,271.71z"/>
   <path class="fil0" d="M32922.98 2282.34c0,506.23 760.78,560.07 760.78,0 0,-546.89 -760.78,-546.89 -760.78,0z"/>
   <path class="fil5" d="M32026.35 8015.38l0 516.25 244.54 0c0,-612.34 -46.99,-499.96 266.66,-1010.36 44,-71.61 65.38,-94.29 86.55,-185.16l-271.71 0c-58.67,110.88 -161.68,257.99 -190.2,380.39 -89.04,-65.24 -160.76,-273.43 -217.36,-380.39l-271.71 0c37.81,162.27 353.23,610.04 353.23,679.27z"/>
   <path class="fil21" d="M6933.07 1708.01c79.35,39.4 39.3,35.98 71.38,6.15 -3.28,8.73 -7.09,11.95 -7.8,26.89 -9.49,198.36 -24.52,-1.46 32.36,217.56 0.96,3.71 2.11,11.56 2.89,15.19 34.65,161.73 24.08,40.97 131.01,150.65 170.26,174.64 195.6,-98.08 328.2,-150.3 69.59,137.83 -14.89,-25.65 22.27,77.2 25.9,71.7 -30.68,66.01 86.42,81.05l0 -286.13c-127.9,-144.79 31.1,-555.29 -116.52,-515.58 -89.23,23.99 38.46,53.94 -111.78,22.6 -88.57,-18.48 -69.41,-37.78 -133.06,12.1l-30.02 33.55c-12.18,-173.89 3.07,-49.82 -57.3,-108.69 0.08,154.58 17.95,95.47 -132.73,107.8 -44.89,3.67 34.83,-28.22 -54.61,-23.43 -63.45,108.14 -48.46,209.87 -30.71,333.39z"/>
   <path class="fil5" d="M11919.96 7553.48l217.37 0c0,1115.45 -72,978.15 244.54,978.15 35.74,-168.78 9.77,-131.02 13.69,-237.96l13.48 -740.19 217.37 0 0 -217.36 -706.45 0 0 217.36z"/>
   <path class="fil25" d="M4333.61 8259.92c171.44,-101.06 305.68,-242.61 551.97,-268.86 328.72,-35.04 468.64,26.45 665.62,143.8 99.07,59.02 145.13,103.41 213.15,194.41 330.66,442.38 177.48,649.2 150.87,961.67 4.07,-4.84 10.21,-18.95 11.8,-14.87 0.29,0.75 140.65,-169.09 163.17,-431.41 16.64,-193.82 -30.15,-273.81 -64.93,-472.71 -158.08,-284.19 -376.44,-532.3 -811.35,-559.3 -383.33,-23.81 -800.69,200.24 -880.3,447.27z"/>
   <path class="fil11" d="M28303.07 3477.86c10.91,112.73 51.39,168.58 72.18,281.93 20.47,111.62 16.32,248.21 -0.24,359.71 -30.73,206.95 -94.38,430.49 -206.91,539.03l54.35 69.46c173.12,-13.05 195.78,-48.79 235.14,26.9l100.71 -126.59c126.55,-227.99 126.83,-263.11 126.31,-525.41 -0.29,-148.86 -40.73,-570.08 -163.29,-679.51 -45.6,-8.6 -61.68,-0.42 -67.32,-0.25l-151.04 -5.25 0.11 59.97z"/>
   <polygon class="fil5" points="21810.13,7553.48 22054.67,7553.48 22054.67,8531.63 22299.2,8531.63 22299.2,7553.48 22543.74,7553.48 22543.74,7336.11 21810.13,7336.11 "/>
   <path class="fil26" d="M6916.56 4776.31l217.58 107.88c138.7,35.67 65.59,-27.46 173.03,-36.18l215.39 12.32c26.03,10.04 49.24,19.21 77.24,30.28l0 -516.25c-202.67,-70.26 -172.72,33.4 -247.66,17.28 -125.64,-27.01 -57.14,-78.96 -153.18,30.48 -28.53,-41.24 -48.39,-51.34 -65.64,-84.82 -23.72,-46.06 0.73,-7.36 -19.79,-74.29 -116.3,76.28 -10.84,-3.37 -59.97,108.68 -84.61,-75.43 -78.79,-31.25 -48.7,-109.14l-91.28 -3.58 2.97 517.35z"/>
   <polygon class="fil27" points="23956.62,8531.63 24201.16,8531.63 24201.16,7336.11 23956.62,7336.11 "/>
   <path class="fil22" d="M34987.96 1738.93l-108.68 0 0 -163.03 108.68 0c72.67,0 80.37,39.22 108.69,81.51 -28.32,42.29 -36.02,81.52 -108.69,81.52zm-271.7 407.56l163.02 0 0 -271.7c229.66,61.32 44.25,271.7 407.56,271.7 -26.9,-115.47 -76.8,-142.95 -163.03,-271.7l52.87 -55.82c196.82,-226.35 -1.11,-378.91 -161.55,-378.91l-298.87 0 0 706.44z"/>
   <path class="fil28" d="M8577.95 1548.73c61.91,92.45 175.9,161.55 305.69,292.07l292.07 305.69c54.45,-96.93 27.17,-416.5 27.17,-543.41 0,-168.19 -624.77,-54.52 -624.93,-54.35z"/>
   <path class="fil29" d="M26728.04 3831.08c0,-256.78 135.99,-244.54 298.87,-244.54 8.81,13.15 218.54,231.13 39.6,365.64 -159,119.53 -300.07,-41.05 -338.47,-66.77l0 -54.34zm-81.52 -54.35c0,305.65 263.18,271.71 434.74,271.71 35.05,-52.34 57.79,-60.39 86.39,-103.81 195.08,-296.17 -223.71,-596.89 -433.78,-352.27 -28.3,32.96 -87.34,135.15 -87.34,184.37z"/>
  </g>
 </g>
</svg>
