<?xml version="1.0" encoding="UTF-8"?>
<!DOCTYPE svg PUBLIC "-//W3C//DTD SVG 1.1//EN" "http://www.w3.org/Graphics/SVG/1.1/DTD/svg11.dtd">
<!-- Creator: CorelDRAW 2020 (64-Bit) -->
<svg xmlns="http://www.w3.org/2000/svg" xml:space="preserve" width="138.89mm" height="136.217mm" version="1.1" style="shape-rendering:geometricPrecision; text-rendering:geometricPrecision; image-rendering:optimizeQuality; fill-rule:evenodd; clip-rule:evenodd"
viewBox="0 0 1551.47 1521.61"
 xmlns:xlink="http://www.w3.org/1999/xlink"
 xmlns:xodm="http://www.corel.com/coreldraw/odm/2003">
 <defs>
  <style type="text/css">
   <![CDATA[
    .fil0 {fill:#FEFEFE}
    .fil17 {fill:#3F3C3C}
    .fil13 {fill:#4A4747}
    .fil5 {fill:#936A22}
    .fil2 {fill:#9C6F1D}
    .fil3 {fill:#AB8D41}
    .fil6 {fill:#AF8048}
    .fil14 {fill:#B6852A}
    .fil10 {fill:#B9923D}
    .fil9 {fill:#C89A48}
    .fil16 {fill:#C9A754}
    .fil4 {fill:#D2B03D}
    .fil1 {fill:#D2B871}
    .fil15 {fill:#DBBC74}
    .fil12 {fill:#E7CB84}
    .fil18 {fill:#F2DB8D}
    .fil11 {fill:#F9E499}
    .fil8 {fill:#F9EFAE}
    .fil7 {fill:#FCEEB3}
   ]]>
  </style>
 </defs>
 <g id="Layer_x0020_1">
  <metadata id="CorelCorpID_0Corel-Layer"/>
  <path class="fil0" d="M1413.55 445.3c4.62,19.81 11.38,30.98 17.22,49.77 6.04,19.43 10.67,36.04 15.18,55.75 44.98,196.61 -19.35,400.68 -157.44,537.87 -24.32,24.16 -47.85,40.02 -71.02,59.02l-40.53 26.46c-41.21,23.74 -87.17,45.63 -135.42,57.68 -61.96,15.47 -45.85,1.34 -49.28,56.81 -1.35,21.88 -4.3,30.95 -4.3,51.18 20.36,-4.74 39.95,-7.97 61.53,-13.35 22.2,-5.53 38.55,-11.48 57.2,-17.68 112.15,-37.23 212.59,-110.79 288.35,-200.3 7.67,-9.06 11.78,-11.29 18.57,-20.83 96.09,-135.1 137.87,-245.33 137.87,-425.65 0,-85.34 -17.23,-161.06 -46.15,-233.64 -8.22,-20.64 -24.76,-48.86 -28.72,-65.86l-7.88 0c-5.52,23.7 -22.45,46.88 -37.67,64.79 -9.99,11.76 -10.34,8.19 -17.5,17.97z"/>
  <path class="fil0" d="M487.48 1213.73c2.28,-27.35 23.07,-64.24 35.47,-82.76 -12.06,-18.01 -37.39,-31.74 -57.95,-56.33l-52.43 -65.79c-56.04,-78.93 -98.71,-177.88 -102.53,-291.9 -3.17,-94.43 3.11,-160.37 37.25,-250.3 21.76,-57.32 50.37,-103.83 86.7,-149.74 10.08,-12.75 30.07,-31.01 33.8,-45.01 -25.56,2.13 -32.01,14.53 -78.6,3.73 -10.8,-2.5 -20.92,-7.67 -31.74,-7.67 -17.26,0 -80.51,124.35 -94.01,158.19 -34.68,86.89 -47.6,148.3 -49.05,248.29 -0.08,5.56 1.23,25.81 1.15,38.85 -0.66,107.83 49.95,236.63 104.14,325.42 27.34,44.79 79.46,103.41 117.52,138.62 10.36,9.59 36.95,32.84 50.29,36.4z"/>
  <path class="fil1" d="M617.53 906.38c-21.41,30.01 1.52,138.86 -8.84,176.36 -4.29,15.54 -31.62,33.52 -43.02,47.62 -9.45,11.69 -30.52,39.82 -34.84,53.74 4.04,8.95 -2.26,19.83 -2.32,33.33 8.64,8.55 10.23,12 11.92,26.11 11.5,-19.33 -3.55,-8.5 15.71,-9.89l32.83 0.22c7.04,1.34 10.71,1.07 20.67,-0.41 9.02,-4.48 -3.43,7.12 4.22,-4.46 2.1,-3.18 2.83,-4.97 5.09,-9.64 4.26,-8.77 6.74,-14.39 9.56,-21.38 11.55,-35.83 72.08,-68.32 127.67,-64.87 63.08,3.92 94.75,39.9 117.67,81.12 0.9,0.81 1.94,1.07 2.35,2.78 0.4,1.67 1.74,2.07 2.29,2.73l12.32 12.57c15.81,7.7 -1.01,0.8 11.19,0.68l30 -2.01c0.37,-0.42 1.14,-1.77 1.85,-2.54l4.96 16.37c5.08,-9.79 9.89,-5.66 18.63,-9.7l10.79 -9.5c-9.16,-64.05 -49.9,-97.7 -72.21,-124.84 -11.8,-14.36 -6.6,-26.21 -6.6,-60.39l192.48 -130.94c12.98,-13.49 7.2,-5.41 4.55,-14.84 -13.56,-2.71 -17.36,3.39 -27.85,10.74 -8.67,6.08 -18.27,11.64 -27.3,16.85l-148.5 106.09c-8.66,4.13 -1.09,-5.48 -26.55,-0.49l-15.36 3.39c0.57,-1.21 1.5,-2.55 2.03,-3.45 14.53,-24.99 8.78,-14.75 -2.78,-10.69l-11.77 0.69c-0.27,-0.02 -1.35,-0.1 -1.61,-0.12 -0.27,-0.02 -1.38,-0.1 -1.64,-0.12 -0.26,-0.02 -1.39,-0.1 -1.62,-0.11 -9.8,-0.56 4.37,-5.18 -4.49,-0.11 -0.1,0.1 -12.01,29.23 -17.88,9.03 -1.88,26.18 -5,15.77 -7.8,15.64l-2.43 -52.76c-25.32,10.31 -19.59,16.11 -18.33,42.55 0.49,10.37 4.94,11.22 -12.62,12.87 -7.94,0.75 -23.28,-0.25 -32.08,-0.25 0,-37.42 -11.71,-72.26 2.65,-87.98l93.54 -64.09c21.16,-14.66 80.89,-60.38 96.91,-64.66l3.94 -23.62c-23.3,11.32 -92.54,62.35 -123.75,84.36 -37.61,26.53 -41.33,34.82 -64.84,32.98 -12.6,-0.98 9.47,-4 -5.78,0.98l-10.6 2.29c-0.2,-0 -1.16,-0.09 -1.36,-0.1l-18.11 -2.13c-21.49,-4.88 -44.08,-4.62 -65.38,3.68 -0.82,0.32 -2.8,2.51 -3.41,1.52 -0.65,-1.05 -2.33,1.27 -3.58,1.66 -1.03,-19.31 3.19,-14.88 -10.56,-22.77z"/>
  <path class="fil2" d="M408.69 197.03c9.53,-2.91 16.27,-3.57 28.09,-2.61 11.16,0.9 5.15,0.03 19.77,-0.88 19.61,-1.22 100.5,4.89 126.91,1.3 63.18,-8.59 181.33,-1.74 250.8,-1.74 0,23.59 4.83,17.88 -11.82,19.7 0,13.07 0.37,26.67 -0.01,39.67l-0.33 35.28c1.38,26.03 1.36,60.79 0.26,86.91 -3.48,83.06 -7,204.4 -3.07,278.33 1.48,27.77 3.35,82.19 -0.8,106.71l20.85 -9.66 -0.28 -49.49 0.74 -87.86 1.44 -183.51 1.13 -170.53c4.34,7 7.93,13.1 13.35,19.39l14.05 -4.45c18.21,-3.17 11.56,-3.19 14.69,3.97 0.21,0.49 0.67,1.76 0.78,2.32 4.45,22.07 -0.04,7.92 -2.18,10.23 13.94,-7.75 -10.02,-3.53 9.3,-6.32 9.88,-1.42 5.46,14.84 2.64,1.23 11.82,-4.28 -3.77,7.57 3.47,-7.63l32.12 -15.11c-1.05,12.82 0.36,6.07 -3.14,15.33 -10.61,28.04 6.2,-7.85 -6.53,11.29 -0.43,0.65 -1.37,1.71 -1.98,2.62 14.45,-3.08 5.25,10.78 17.79,13.12 0,-21.46 -0.09,-42.93 -0.07,-64.38l0.07 -149.63 -500.79 0 -21.3 6.85c-3.74,14.22 -2.09,40.4 -1.84,51.23 0.25,10.56 0.43,15.31 0.39,23.66 -0.07,15.33 -0.96,8.64 -4.49,24.66z"/>
  <path class="fil3" d="M1001.76 816.68l1.38 -123.95 -0.43 -75.03 2.14 -115.06c13.57,5.71 10.77,6.32 19.03,1.72 12.1,-6.76 -6.99,1.57 9.02,-5.47 4.16,5.98 2.1,4.63 8.8,10.23 8.01,6.7 0.04,1.26 26.25,1.62 0.19,0 1.16,-0.09 1.36,-0.07 0.21,0.02 1.22,0.02 1.45,0.07 0.24,0.05 1.29,0.23 1.54,0.32 15.94,5.71 3.86,11.28 18.22,5.88 0.74,-0.28 5.54,-3.3 6.72,-3.86 -1.52,14.39 -5.84,6.99 5.01,14.96l0 -63.03c73.93,0 155.71,3.35 228.64,0.08 34.37,-1.54 58.4,-18.72 75.81,-38.48 21.48,-24.37 27.28,-48.59 46.1,-75.88 -1.05,-0.78 -4,-4.65 -4.78,-5.5 -0.67,-0.73 -1.51,-1.76 -2.23,-2.5 -10.44,-10.7 -14.89,-10.37 -19.98,-9.13 -15.24,3.71 -10.15,9.56 -11.01,14.27 -0.65,-0.89 -1.24,-2.25 -1.72,-2.83l-6.34 -6.91c-9.26,-6.33 -12.8,-1.03 -22.59,-9.55l-6.31 -9.58c-3.86,5.12 6.97,4.06 -9.69,4.06l-4.16 13.91c-7.92,1.84 -3.16,2.28 -9.52,-0.35 -33.78,8.09 -200.06,2.29 -252.2,2.29l0 -29.63c-16.98,-2.18 -8.78,-1.36 -12.53,-11.75 -5.39,-14.92 6.86,8.79 -3.23,-11.2 -19.23,7.57 -22.91,47.13 -47.6,21.8 -15.51,-15.91 -13.98,1.61 -19,-21.85 -0.11,-0.53 -0.28,-1.66 -0.42,-2.2 -8.25,-31.77 -6.07,-2.79 -4.69,-31.55 0.1,-2.17 0.66,-2.63 1.13,-3.9 -4.65,4.33 1.16,4.82 -10.35,-0.89 -3.62,22.17 -1.3,58.01 -1.39,64.64l-2.38 504.32z"/>
  <path class="fil4" d="M34.3 236.44c0,-6.67 11.56,-5.53 4.99,0l-1.46 0.22c-3.98,0.08 -3.53,8.74 -3.53,-0.22zm35.47 -7.88c9.12,-12.45 14.29,-7.88 35.47,-7.88 -5.26,4.57 -4.16,5.02 -12.66,7.04 -7.27,1.73 -15.32,0.84 -22.81,0.84zm-19.7 -15.76c0.21,-1.71 17.88,-7.06 5.26,0.27 -6.88,4 -6,5.7 -5.26,-0.27zm94.58 -11.82l31.53 0c-5.43,7.52 -17.75,9.94 -26.22,6.03 -4.2,-1.94 -4.94,4.67 -5.31,-6.03zm-43.35 3.94c10.59,-10.04 10.45,-15.29 31.53,-15.76l0 7.88c-16.48,3.84 -10.83,7.42 -31.53,7.88zm-86.7 -27.58l11.82 0 0 7.88c-11.52,-2.76 -5.68,0.51 -11.82,-7.88zm122.16 -11.82l27.58 0c11.1,0 7.3,1.7 11.82,7.88l-51.23 0c4.61,-6.64 0.56,-7.88 11.82,-7.88zm-82.76 0c26.5,0.59 19.73,13.4 43.35,19.7 -14.61,19.94 -19.94,-5.57 -43.35,-11.82l0 -7.88zm43.35 3.94c4.08,-15.28 5.32,-15.35 23.64,-15.76 -7.22,10.79 -7.36,14.41 -23.64,15.76zm-63.05 -15.76c4.27,-1.89 -1.22,-7.24 4.69,-0.06 4.19,5.09 1.07,0 3.19,7.94 -15.3,-4.09 -7.75,-7.62 -7.88,-7.88zm47.29 -7.88c0,-10.7 14.1,-0 3.53,0.21 -3.98,0.08 -3.53,8.74 -3.53,-0.21zm94.58 -15.76l0 7.88 -59.11 0c8.14,-11.12 2.93,-7.82 23.26,-8.26 11.39,-0.25 24.21,0.38 35.85,0.38zm-78.81 -11.82c4.19,-4.19 14.95,6.25 4.39,2.05 -0.09,-0.04 -10.99,4.55 -4.39,-2.05zm-35.47 -39.41c4.27,-1.89 -1.22,-7.24 4.69,-0.06 4.19,5.09 1.07,0 3.19,7.94 -15.3,-4.09 -7.75,-7.62 -7.88,-7.88zm126.1 23.64c-31.88,0 -29.31,5.06 -46.36,-12.75 -14.52,-15.17 -16.52,-14.83 -44.28,-14.83 7.31,-10.12 9.05,-5.89 19.65,-5.81 34.17,0.28 18.84,7.21 45.33,19.64 15.78,7.41 16.69,1.51 25.66,13.75zm-108.37 -39.41l-5.91 0 5.91 0 0 0zm65.02 -7.88c0.04,-0.02 102.31,-21.51 106.4,27.58 -48.7,-4.05 -81.41,6.52 -106.4,-27.58zm-21.67 -15.76l5.91 0 -5.91 0 0 0zm41.38 -11.82c52.65,0 79.53,-8.06 99.24,18.98 6.07,8.33 14.25,23.32 18.98,32.25 -29.93,-2.49 -9.05,-24.86 -47.49,-39.21 -19.08,-7.12 -56.76,-4.14 -82.55,-4.14 4.62,-6.64 0.57,-7.88 11.82,-7.88zm-31.53 -11.82l7.88 0 0 11.82c-15.1,-10.49 -1.66,0.02 -7.88,-11.82zm275.87 181.27c3.53,-16.02 4.42,-9.33 4.49,-24.66 0.04,-8.34 -0.14,-13.1 -0.39,-23.66 -0.25,-10.83 -1.9,-37.01 1.84,-51.23l21.3 -6.85c-14.85,-6.47 -2.74,3.95 -24.6,-5.97 -12.08,-5.48 -93.16,-1.91 -109.07,-1.91 -22.13,-33.04 -22.99,-66.45 -67.29,-70.91 -32.29,-3.25 -23.29,-1.19 -50.88,0.07 -41.39,1.9 -22.47,-11.92 -59.16,-11.92 -17.89,33.81 -23.1,26.95 -23.64,51.23 -35.32,-23.65 -27.42,-21.48 -52.75,18.57 -14.24,22.52 7.42,31.38 17.28,36.6 20.8,-11.01 19.25,-19 42.82,-15.79 17.04,2.32 25.52,14.57 35.99,23.67 -46.73,0 -14.83,-11.82 -55.17,-11.82 -20.62,30.79 -23.22,28.21 -23.64,47.29 -21.42,-5.72 -8.15,-11.82 -43.35,-11.82l-18.44 29.29c-9.23,15.13 -0.73,22.78 6.62,33.76 30.13,0 15.35,-6.22 39.41,-11.82 -5.49,7.5 -0.44,-0.05 -5.77,6.05 -38.04,43.45 -26.31,51.32 -6.05,64.88 7.27,-3.85 18.27,-12.06 25.33,-14.07 12.6,-3.59 30.6,-2.16 38.89,-4.46 34.88,-9.68 -6.97,-17.33 65.81,-16.95l125.11 -1.46c15.94,-5.34 10.03,2.33 -2.93,-22.17l118.24 -3.94z"/>
  <path class="fil5" d="M984.01 835.92c18.39,2.44 18.67,-2.64 17.75,-19.25l2.38 -504.32c0.1,-6.63 -2.22,-42.47 1.39,-64.64 -2.57,-17.92 -4.75,-32.67 4.45,-48.35 12.97,-0.69 1.41,3.93 7.92,3.4 21.85,-1.79 19.26,6.78 19.25,-15.63 8.76,8.54 6.54,-9.46 8.31,15.76l4.35 -4.87c9.23,-7.23 6.45,-4.43 19.3,-1.75 21.79,4.55 3.27,0.2 16.21,-3.28 21.41,-5.76 -1.65,53.78 16.9,74.78l-0.15 -55.13c0.91,-10.35 4.97,-20.49 6.81,-16.63 0.42,0.87 2.17,-0.79 2.74,-0.88l129.72 1.9c6.37,-6.35 1.48,-2.83 12.57,-3.03 0.74,-0.01 1.96,0.06 2.74,0.08 2.64,0.05 8.33,0.57 8.49,0.57l100.2 2.38c2.32,21.49 0.4,6.56 6.35,12.3l0.83 -25.73c41.44,6.82 0.6,-10.49 37.11,3.16 21.52,8.04 -15.44,3.64 4.19,0.91l7.15 -3.22c0.21,-0.02 1.22,-0.01 1.43,0.01 8.99,0.93 27.77,20.43 34.48,24.38 -5.67,-35.94 -27.65,-76.74 -51.07,-94.72 -37.76,-29 -55.04,-23.48 -118.38,-23.48 -95.89,0 -191.78,0 -287.67,0 0,19.95 3.81,22.01 -15.76,23.64l0 721.64z"/>
  <path class="fil6" d="M592.53 1433.93l-4.3 -12.32c6.9,2.48 4.41,7.76 12.43,6.01 17.05,-3.72 -9.67,8.3 3.99,-2.49l4.07 -4.78c0.52,-0.59 1.28,-1.99 2.08,-2.85 1.22,15.64 -4.07,8.81 5.8,14.06 5.26,2.8 18.05,-3.3 26.14,-3.92 24.29,-1.86 6.18,9.14 28.21,1.04l47.59 -4.25c11.13,4.12 -4.69,6.38 33.25,-1l30.12 -1.51c0.21,0.04 1.15,0.23 1.37,0.28 21.52,4.34 12.71,-8.42 30.15,0.65 17.82,9.27 1.73,8.63 19.39,5.34 18.46,-3.44 -0.12,-2.89 17.5,1.17 21.01,4.84 22.05,-8.01 35.09,-0.48l12.6 8.57 11.12 -4.52c12.66,-14.29 18.15,-19.4 27.65,-37.86 6.5,-12.63 16.79,-30.76 21.82,-45.17 17.51,-50.17 12.89,-69.03 9.65,-124.32l-10.79 9.5c-8.74,4.04 -13.55,-0.09 -18.63,9.7l-4.96 -16.37c-0.71,0.77 -1.48,2.13 -1.85,2.54l-30 2.01c-12.2,0.13 4.62,7.02 -11.19,-0.68l-12.32 -12.57c-0.55,-0.66 -1.89,-1.06 -2.29,-2.73 -0.41,-1.71 -1.46,-1.96 -2.35,-2.78 5.04,28.85 11.83,40.45 9.42,68.56 -3.27,38.05 -23.62,62.68 -23.67,62.57 -0.23,-0.59 -1.12,1.45 -1.71,2.16 -11.18,13.36 -12.62,21.41 -27.41,31.91 -88.66,62.99 -202.12,23.29 -221.92,-93.83 -3.31,-19.6 1.06,-21.95 1.06,-52.13 -9.96,1.48 -13.63,1.75 -20.67,0.41l-32.83 -0.22c-19.26,1.38 -4.21,-9.44 -15.71,9.89 -1.69,-14.12 -3.28,-17.56 -11.92,-26.11 -3.68,4.85 -1.38,-2.53 -5.73,11.57 -15.95,51.74 13.13,173.31 69.75,204.94z"/>
  <path class="fil7" d="M839.06 700.56l0.28 49.49 -20.85 9.66 -104.05 70.19c-18.99,12.58 -31.83,23.78 -51.24,35.45 -10.13,6.09 -19.55,8.78 -28.5,14.87 -20.53,13.96 -7.75,17.73 -17.19,26.16 13.75,7.89 9.54,3.46 10.56,22.77 1.26,-0.39 2.93,-2.71 3.58,-1.66 0.61,0.99 2.59,-1.2 3.41,-1.52 21.3,-8.3 43.89,-8.55 65.38,-3.68l18.11 2.13c0.2,0.01 1.16,0.09 1.36,0.1l10.6 -2.29c15.24,-4.98 -6.82,-1.96 5.78,-0.98 23.51,1.84 27.23,-6.45 64.84,-32.98 31.21,-22.02 100.45,-73.04 123.75,-84.36l11.82 -0.02 0 -100.78c-12.27,-13.68 -18.86,-10.15 -38.81,-3.67 -30.87,10.02 -17.58,-6.06 -34.91,12.66l-11.06 -11.92c-2.59,-1.61 0.78,-3.55 -12.89,0.37z"/>
  <path class="fil8" d="M1001.76 816.68c0.92,16.61 0.64,21.69 -17.75,19.25 -9.42,16.47 0.34,5.56 -15.4,15.6 -22.59,14.41 -125,79.24 -133.86,94.25 8.1,20.56 10.44,-2.88 58.68,-16.29l52.53 -10.5c11.15,-1.35 7.12,-7.59 20.56,-3.53l48.12 4.21c18.16,-2.13 0.66,7.3 16.68,2.48 9.03,-5.21 18.64,-10.77 27.3,-16.85 10.49,-7.35 14.28,-13.45 27.85,-10.74 6.47,-3.43 11.68,-7.6 19.7,-11.84 -9.98,-20.8 -3.94,-138.37 -3.94,-173.41 -4.06,-1.61 -7.43,-2.94 -11.2,-4.39l-31.24 -1.79c-15.58,1.27 -4.98,10.42 -25.1,5.25l-31.56 -15.65 -1.38 123.95z"/>
  <path class="fil0" d="M633.29 59.11c11.23,5.39 216.58,3.08 247.78,1.53 25.39,-1.26 21.77,2.41 35.95,2.41 22.06,0 26.99,-4.1 71.25,-2.75l133.66 2.75c15.07,0 1.43,1.21 11.82,-3.94 -9.01,-12.3 -32.77,-15.59 -49.7,-21.23 -119.41,-39.84 -278.5,-40.27 -398.11,-0.98 -20.23,6.65 -44.81,11.5 -52.66,22.21z"/>
  <path class="fil9" d="M592.53 1433.93c11.2,16.24 36.41,32.47 60.36,43.52 83.56,38.53 203.58,12.79 245.12,-40l-12.6 -8.57c-13.04,-7.53 -14.08,5.32 -35.09,0.48 -17.62,-4.06 0.96,-4.61 -17.5,-1.17 -17.66,3.3 -1.57,3.93 -19.39,-5.34 -17.44,-9.07 -8.63,3.69 -30.15,-0.65 -0.22,-0.04 -1.16,-0.24 -1.37,-0.28l-30.12 1.51c-37.94,7.38 -22.11,5.12 -33.25,1l-47.59 4.25c-22.02,8.1 -3.91,-2.9 -28.21,-1.04 -8.09,0.62 -20.87,6.72 -26.14,3.92 -9.87,-5.25 -4.58,1.58 -5.8,-14.06 -0.8,0.86 -1.55,2.26 -2.08,2.85l-4.07 4.78c-13.65,10.8 13.06,-1.23 -3.99,2.49 -8.03,1.75 -5.54,-3.53 -12.43,-6.01l4.3 12.32z"/>
  <path class="fil10" d="M841.24 429.18l4.1 -8.01c3.61,12.25 7.01,13.41 12.63,24.07l23.64 -15.76c17.27,14.43 21.64,11.83 35.58,0.64 4.6,-3.69 4.04,0.71 7.73,-8.38 0.57,30.66 -2.65,22.6 11.8,27.49l0 -144.57c-12.54,-2.34 -3.34,-16.2 -17.79,-13.12 0.61,-0.91 1.55,-1.98 1.98,-2.62 12.73,-19.14 -4.08,16.75 6.53,-11.29 3.5,-9.26 2.09,-2.51 3.14,-15.33l-32.12 15.11c-7.24,15.21 8.35,3.35 -3.47,7.63 2.82,13.62 7.24,-2.65 -2.64,-1.23 -19.32,2.79 4.63,-1.43 -9.3,6.32 2.14,-2.31 6.63,11.85 2.18,-10.23 -0.11,-0.55 -0.57,-1.83 -0.78,-2.32 -3.13,-7.16 3.52,-7.15 -14.69,-3.97l-14.05 4.45c-5.42,-6.3 -9.01,-12.4 -13.35,-19.39l-1.13 170.53z"/>
  <path class="fil11" d="M834.75 945.77c-15,3.78 -32.95,19.74 -47.77,27.58l3.92 15.76 2.43 52.76c2.81,0.14 5.92,10.55 7.8,-15.64 5.87,20.21 17.78,-8.93 17.88,-9.03 8.86,-5.06 -5.31,-0.45 4.49,0.11 0.23,0.01 1.36,0.09 1.62,0.11 0.26,0.02 1.37,0.1 1.64,0.12 0.26,0.02 1.34,0.1 1.61,0.12l11.77 -0.69c11.57,-4.06 17.32,-14.29 2.78,10.69 -0.52,0.9 -1.46,2.24 -2.03,3.45l15.36 -3.39c25.46,-4.99 17.9,4.62 26.55,0.49l148.5 -106.09c-16.03,4.82 1.47,-4.61 -16.68,-2.48l-48.12 -4.21c-13.45,-4.06 -9.41,2.18 -20.56,3.53l-52.53 10.5c-48.24,13.41 -50.58,36.85 -58.68,16.29z"/>
  <path class="fil12" d="M839.8 612.69l-0.74 87.86c13.66,-3.92 10.3,-1.98 12.89,-0.37l11.06 11.92c17.33,-18.73 4.04,-2.64 34.91,-12.66 19.95,-6.48 26.54,-10.01 38.81,3.67l0 -102.63c-8.74,-17.11 -3.2,-37.79 -8.89,-56.67 -6.73,-9.67 2.52,-0.19 -11.35,0.11l-24.86 2.24c-0.7,0.22 -1.84,0.76 -2.49,0.95l-30.85 -0.89c-2.22,0.72 -3.68,15.82 -4.26,-9.94 -6.64,9.52 -2.9,11.92 -6.38,15.2l-1.5 -16.01c-0.37,0.91 -0.59,2.2 -0.69,2.86 -0.11,0.68 -0.49,2.1 -0.61,2.97 -2.54,18.84 1.13,51.48 -5.04,71.38z"/>
  <path class="fil13" d="M909.14 1432.93l-11.12 4.52c-41.54,52.79 -161.56,78.53 -245.12,40 -23.96,-11.05 -49.16,-27.28 -60.36,-43.52 -56.61,-31.62 -85.7,-153.2 -69.75,-204.94 4.35,-14.1 2.05,-6.72 5.73,-11.57 0.05,-13.5 6.36,-24.38 2.32,-33.33 -43.47,68.92 -38.19,171.58 14.55,243.65 112.17,153.28 316.97,92.12 363.76,5.18z"/>
  <path class="fil14" d="M1371.71 209.33c-4.56,24.22 3.14,73.72 -3.6,113.72 16.65,0 5.83,1.06 9.69,-4.06l6.31 9.58c9.79,8.52 13.32,3.22 22.59,9.55l6.34 6.91c0.48,0.59 1.07,1.94 1.72,2.83 0.86,-4.7 -4.22,-10.55 11.01,-14.27 5.09,-1.24 9.54,-1.57 19.98,9.13 0.72,0.74 1.56,1.78 2.23,2.5 0.79,0.85 3.73,4.72 4.78,5.5 0.57,-19.79 3.28,-20.05 6.46,-37.11 2.97,-15.98 3.49,-32.7 3.64,-39.03 0.06,-2.32 1.78,-48.3 -5.98,-65.75 -6.7,-3.96 -25.49,-23.45 -34.48,-24.38 -0.21,-0.02 -1.22,-0.03 -1.43,-0.01l-7.15 3.22c-19.62,2.73 17.33,7.14 -4.19,-0.91 -36.51,-13.65 4.33,3.66 -37.11,-3.16l-0.83 25.73z"/>
  <path class="fil15" d="M1002.71 617.69l13.24 0.52c-4.36,11.3 -5.21,4.89 7.06,15.83 7.12,-16.25 -8.17,-4.7 8.7,-15.76 2.98,9.71 -0.57,4.1 2.87,10.78 2.5,4.86 5.38,6.32 9.52,12.3 13.93,-15.87 3.99,-8.34 22.22,-4.42 10.87,2.34 6.53,-12.7 35.92,-2.51l0 -106.4c-10.85,-7.97 -6.53,-0.57 -5.01,-14.96 -1.18,0.57 -5.97,3.59 -6.72,3.86 -14.37,5.4 -2.28,-0.17 -18.22,-5.88 -0.25,-0.09 -1.3,-0.27 -1.54,-0.32 -0.23,-0.05 -1.23,-0.05 -1.45,-0.07 -0.2,-0.02 -1.16,0.07 -1.36,0.07 -26.21,-0.36 -18.24,5.08 -26.25,-1.62 -6.7,-5.6 -4.64,-4.25 -8.8,-10.23 -16.01,7.04 3.08,-1.29 -9.02,5.47 -8.25,4.61 -5.46,3.99 -19.03,-1.72l-2.14 115.06z"/>
  <path class="fil16" d="M841.24 429.18l-1.44 183.51c6.16,-19.91 2.5,-52.54 5.04,-71.38 0.12,-0.87 0.5,-2.29 0.61,-2.97 0.11,-0.66 0.32,-1.96 0.69,-2.86l1.5 16.01c3.49,-3.27 -0.25,-5.68 6.38,-15.2 0.58,25.76 2.03,10.66 4.26,9.94l30.85 0.89c0.66,-0.19 1.79,-0.73 2.49,-0.95l24.86 -2.24c13.87,-0.3 4.62,-9.79 11.35,-0.11 5.69,18.88 0.15,39.56 8.89,56.67l0 -151.27c-14.45,-4.89 -11.24,3.17 -11.8,-27.49 -3.69,9.09 -3.13,4.69 -7.73,8.38 -13.94,11.19 -18.31,13.79 -35.58,-0.64l-23.64 15.76c-5.62,-10.66 -9.02,-11.82 -12.63,-24.07l-4.1 8.01z"/>
  <path class="fil14" d="M1005.53 247.72c11.51,5.71 5.7,5.22 10.35,0.89 -0.48,1.27 -1.03,1.73 -1.13,3.9 -1.38,28.77 -3.56,-0.21 4.69,31.55 0.14,0.54 0.31,1.68 0.42,2.2 5.03,23.46 3.49,5.94 19,21.85 24.69,25.33 28.37,-14.23 47.6,-21.8 10.09,19.99 -2.16,-3.72 3.23,11.2 3.76,10.4 -4.45,9.57 12.53,11.75l0 -41.5c-18.55,-21 4.51,-80.54 -16.9,-74.78 -12.94,3.48 5.58,7.82 -16.21,3.28 -12.85,-2.68 -10.07,-5.48 -19.3,1.75l-4.35 4.87c-1.77,-25.22 0.45,-7.23 -8.31,-15.76 0.01,22.42 2.6,13.85 -19.25,15.63 -6.51,0.53 5.05,-4.09 -7.92,-3.4 -9.2,15.68 -7.03,30.44 -4.45,48.35z"/>
  <path class="fil17" d="M628.52 1197.97c24.86,-14.66 44.33,-35.19 80.05,-38.99 47.68,-5.08 67.97,3.84 96.54,20.86 14.37,8.56 21.05,15 30.91,28.2 47.96,64.16 25.74,94.16 21.88,139.47 0.59,-0.7 1.48,-2.75 1.71,-2.16 0.04,0.11 20.4,-24.52 23.67,-62.57 2.41,-28.11 -4.37,-39.71 -9.42,-68.56 -22.93,-41.22 -54.6,-77.2 -117.67,-81.12 -55.6,-3.45 -116.13,29.04 -127.67,64.87z"/>
  <path class="fil18" d="M1003.14 692.73l31.56 15.65c20.12,5.17 9.51,-3.98 25.1,-5.25l31.24 1.79c3.78,1.46 7.14,2.79 11.2,4.39l0 -74.87c-29.39,-10.19 -25.05,4.84 -35.92,2.51 -18.22,-3.92 -8.29,-11.45 -22.22,4.42 -4.14,-5.98 -7.02,-7.45 -9.52,-12.3 -3.44,-6.68 0.11,-1.07 -2.87,-10.78 -16.87,11.06 -1.57,-0.49 -8.7,15.76 -12.27,-10.94 -11.43,-4.53 -7.06,-15.83l-13.24 -0.52 0.43 75.03z"/>
  <path class="fil0" d="M1244.1 224.62c8.98,13.41 25.51,23.43 44.34,42.36l42.36 44.34c7.9,-14.06 3.94,-60.41 3.94,-78.81 0,-24.39 -90.61,-7.91 -90.64,-7.88z"/>
 </g>
</svg>
