<?xml version="1.0" encoding="UTF-8"?>
<!DOCTYPE svg PUBLIC "-//W3C//DTD SVG 1.1//EN" "http://www.w3.org/Graphics/SVG/1.1/DTD/svg11.dtd">
<!-- Creator: CorelDRAW 2020 (64-Bit) -->
<svg xmlns="http://www.w3.org/2000/svg" xml:space="preserve" width="138.89mm" height="136.217mm" version="1.1" style="shape-rendering:geometricPrecision; text-rendering:geometricPrecision; image-rendering:optimizeQuality; fill-rule:evenodd; clip-rule:evenodd"
viewBox="0 0 749.83 735.4"
 xmlns:xlink="http://www.w3.org/1999/xlink"
 xmlns:xodm="http://www.corel.com/coreldraw/odm/2003">
 <defs>
  <style type="text/css">
   <![CDATA[
    .fil0 {fill:#02214E}
    .fil9 {fill:#041C49}
    .fil20 {fill:#091B47}
    .fil18 {fill:#3F3C3C}
    .fil14 {fill:#4A4747}
    .fil5 {fill:#936A22}
    .fil2 {fill:#9C6F1D}
    .fil3 {fill:#AB8D41}
    .fil6 {fill:#AF8048}
    .fil15 {fill:#B6852A}
    .fil11 {fill:#B9923D}
    .fil10 {fill:#C89A48}
    .fil17 {fill:#C9A754}
    .fil4 {fill:#D2B03D}
    .fil1 {fill:#D2B871}
    .fil16 {fill:#DBBC74}
    .fil13 {fill:#E7CB84}
    .fil19 {fill:#F2DB8D}
    .fil12 {fill:#F9E499}
    .fil8 {fill:#F9EFAE}
    .fil7 {fill:#FCEEB3}
   ]]>
  </style>
 </defs>
 <g id="Layer_x0020_1">
  <metadata id="CorelCorpID_0Corel-Layer"/>
  <g id="_2390564080704">
   <path class="fil0" d="M683.17 215.22c2.23,9.58 5.5,14.97 8.32,24.05 2.92,9.39 5.16,17.42 7.34,26.95 21.74,95.02 -9.35,193.65 -76.09,259.96 -11.76,11.68 -23.13,19.34 -34.33,28.52l-19.59 12.79c-19.92,11.47 -42.13,22.05 -65.45,27.87 -29.95,7.48 -22.16,0.65 -23.81,27.46 -0.65,10.57 -2.08,14.96 -2.08,24.73 9.84,-2.29 19.31,-3.85 29.74,-6.45 10.73,-2.67 18.63,-5.55 27.64,-8.54 54.2,-17.99 102.75,-53.55 139.36,-96.81 3.71,-4.38 5.7,-5.45 8.98,-10.07 46.44,-65.29 66.63,-118.57 66.63,-205.72 0,-41.24 -8.33,-77.84 -22.31,-112.92 -3.97,-9.97 -11.97,-23.61 -13.88,-31.83l-3.81 0c-2.67,11.46 -10.85,22.66 -18.21,31.31 -4.83,5.68 -5,3.96 -8.46,8.68z"/>
   <path class="fil0" d="M235.6 586.6c1.1,-13.22 11.15,-31.05 17.14,-40 -5.83,-8.7 -18.07,-15.34 -28.01,-27.23l-25.34 -31.8c-27.09,-38.15 -47.71,-85.97 -49.56,-141.08 -1.53,-45.64 1.5,-77.51 18,-120.97 10.52,-27.7 24.34,-50.18 41.9,-72.37 4.87,-6.16 14.53,-14.99 16.34,-21.75 -12.36,1.03 -15.47,7.02 -37.99,1.8 -5.22,-1.21 -10.11,-3.71 -15.34,-3.71 -8.34,0 -38.91,60.1 -45.44,76.45 -16.76,41.99 -23,71.68 -23.71,120 -0.04,2.69 0.59,12.47 0.56,18.78 -0.32,52.11 24.14,114.36 50.33,157.28 13.22,21.65 38.4,49.98 56.8,67 5.01,4.63 17.86,15.87 24.31,17.59z"/>
   <path class="fil1" d="M298.45 438.06c-10.35,14.51 0.74,67.11 -4.27,85.23 -2.07,7.51 -15.28,16.2 -20.79,23.02 -4.57,5.65 -14.75,19.24 -16.84,25.97 1.95,4.33 -1.09,9.58 -1.12,16.11 4.18,4.13 4.95,5.8 5.76,12.62 5.56,-9.34 -1.72,-4.11 7.59,-4.78l15.87 0.11c3.4,0.65 5.17,0.52 9.99,-0.2 4.36,-2.17 -1.66,3.44 2.04,-2.16 1.02,-1.54 1.37,-2.4 2.46,-4.66 2.06,-4.24 3.26,-6.96 4.62,-10.33 5.58,-17.32 34.84,-33.02 61.71,-31.35 30.49,1.89 45.79,19.28 56.87,39.2 0.43,0.39 0.94,0.52 1.14,1.34 0.19,0.81 0.84,1 1.11,1.32l5.95 6.07c7.64,3.72 -0.49,0.39 5.41,0.33l14.5 -0.97c0.18,-0.2 0.55,-0.86 0.89,-1.23l2.4 7.91c2.46,-4.73 4.78,-2.73 9,-4.69l5.21 -4.59c-4.43,-30.96 -24.12,-47.22 -34.9,-60.34 -5.7,-6.94 -3.19,-12.67 -3.19,-29.19l93.03 -63.29c6.27,-6.52 3.48,-2.61 2.2,-7.17 -6.55,-1.31 -8.39,1.64 -13.46,5.19 -4.19,2.94 -8.83,5.62 -13.2,8.14l-71.77 51.27c-4.18,2 -0.53,-2.65 -12.83,-0.24l-7.42 1.64c0.28,-0.58 0.73,-1.23 0.98,-1.67 7.02,-12.08 4.25,-7.13 -1.35,-5.17l-5.69 0.33c-0.13,-0.01 -0.65,-0.05 -0.78,-0.06 -0.13,-0.01 -0.67,-0.05 -0.79,-0.06 -0.12,-0.01 -0.67,-0.05 -0.78,-0.05 -4.74,-0.27 2.11,-2.5 -2.17,-0.05 -0.05,0.05 -5.81,14.13 -8.64,4.36 -0.91,12.65 -2.42,7.62 -3.77,7.56l-1.17 -25.5c-12.24,4.98 -9.47,7.78 -8.86,20.56 0.24,5.01 2.39,5.42 -6.1,6.22 -3.84,0.36 -11.25,-0.12 -15.51,-0.12 0,-18.08 -5.66,-34.92 1.28,-42.52l45.21 -30.98c10.23,-7.09 39.1,-29.18 46.84,-31.25l1.9 -11.42c-11.26,5.47 -44.72,30.13 -59.81,40.77 -18.18,12.82 -19.98,16.83 -31.34,15.94 -6.09,-0.48 4.58,-1.93 -2.79,0.47l-5.12 1.11c-0.1,-0 -0.56,-0.04 -0.66,-0.05l-8.75 -1.03c-10.39,-2.36 -21.3,-2.23 -31.6,1.78 -0.4,0.15 -1.35,1.21 -1.65,0.73 -0.31,-0.51 -1.12,0.61 -1.73,0.8 -0.5,-9.33 1.54,-7.19 -5.11,-11.01z"/>
   <path class="fil2" d="M197.52 95.23c4.6,-1.41 7.86,-1.72 13.58,-1.26 5.39,0.44 2.49,0.01 9.55,-0.43 9.48,-0.59 48.57,2.36 61.34,0.63 30.54,-4.15 87.64,-0.84 121.22,-0.84 0,11.4 2.33,8.64 -5.71,9.52 0,6.32 0.18,12.89 -0,19.17l-0.16 17.05c0.67,12.58 0.66,29.38 0.13,42 -1.68,40.15 -3.39,98.79 -1.48,134.52 0.71,13.42 1.62,39.72 -0.39,51.57l10.07 -4.67 -0.14 -23.92 0.36 -42.46 0.69 -88.69 0.54 -82.42c2.1,3.38 3.83,6.33 6.45,9.37l6.79 -2.15c8.8,-1.53 5.59,-1.54 7.1,1.92 0.1,0.24 0.32,0.85 0.38,1.12 2.15,10.67 -0.02,3.83 -1.05,4.94 6.74,-3.74 -4.84,-1.71 4.5,-3.05 4.77,-0.69 2.64,7.17 1.28,0.59 5.71,-2.07 -1.82,3.66 1.68,-3.69l15.53 -7.3c-0.51,6.2 0.17,2.93 -1.52,7.41 -5.13,13.55 2.99,-3.79 -3.16,5.46 -0.21,0.31 -0.66,0.83 -0.96,1.27 6.98,-1.49 2.54,5.21 8.6,6.34 0,-10.37 -0.04,-20.75 -0.03,-31.12l0.03 -72.32 -242.03 0 -10.3 3.31c-1.81,6.87 -1.01,19.52 -0.89,24.76 0.12,5.1 0.21,7.4 0.19,11.43 -0.03,7.41 -0.46,4.18 -2.17,11.92z"/>
   <path class="fil3" d="M484.16 394.7l0.67 -59.91 -0.21 -36.26 1.03 -55.61c6.56,2.76 5.21,3.06 9.2,0.83 5.85,-3.27 -3.38,0.76 4.36,-2.64 2.01,2.89 1.02,2.24 4.25,4.95 3.87,3.24 0.02,0.61 12.68,0.78 0.09,0 0.56,-0.04 0.66,-0.03 0.1,0.01 0.59,0.01 0.7,0.04 0.12,0.03 0.62,0.11 0.75,0.15 7.71,2.76 1.86,5.45 8.81,2.84 0.36,-0.13 2.68,-1.59 3.25,-1.87 -0.74,6.95 -2.82,3.38 2.42,7.23l0 -30.46c35.73,0 75.25,1.62 110.5,0.04 16.61,-0.74 28.22,-9.05 36.64,-18.6 10.38,-11.78 13.18,-23.49 22.28,-36.67 -0.51,-0.38 -1.93,-2.25 -2.31,-2.66 -0.33,-0.35 -0.73,-0.85 -1.08,-1.21 -5.05,-5.17 -7.2,-5.01 -9.66,-4.41 -7.36,1.79 -4.91,4.62 -5.32,6.89 -0.31,-0.43 -0.6,-1.09 -0.83,-1.37l-3.07 -3.34c-4.48,-3.06 -6.19,-0.5 -10.92,-4.62l-3.05 -4.63c-1.86,2.47 3.37,1.96 -4.68,1.96l-2.01 6.72c-3.83,0.89 -1.53,1.1 -4.6,-0.17 -16.33,3.91 -96.69,1.11 -121.89,1.11l0 -14.32c-8.21,-1.05 -4.24,-0.66 -6.06,-5.68 -2.6,-7.21 3.32,4.25 -1.56,-5.41 -9.3,3.66 -11.07,22.78 -23.01,10.54 -7.5,-7.69 -6.75,0.78 -9.18,-10.56 -0.05,-0.25 -0.13,-0.8 -0.2,-1.06 -3.99,-15.35 -2.93,-1.35 -2.27,-15.25 0.05,-1.05 0.32,-1.27 0.55,-1.88 -2.25,2.09 0.56,2.33 -5,-0.43 -1.75,10.72 -0.63,28.04 -0.67,31.24l-1.15 243.74z"/>
   <path class="fil4" d="M16.58 114.27c0,-3.22 5.59,-2.67 2.41,0l-0.7 0.1c-1.92,0.04 -1.71,4.23 -1.71,-0.1zm17.14 -3.81c4.41,-6.02 6.91,-3.81 17.14,-3.81 -2.54,2.21 -2.01,2.43 -6.12,3.4 -3.51,0.84 -7.41,0.4 -11.02,0.4zm-9.52 -7.62c0.1,-0.83 8.64,-3.41 2.54,0.13 -3.33,1.93 -2.9,2.76 -2.54,-0.13zm45.71 -5.71l15.24 0c-2.63,3.64 -8.58,4.81 -12.67,2.91 -2.03,-0.94 -2.39,2.26 -2.56,-2.91zm-20.95 1.9c5.12,-4.85 5.05,-7.39 15.24,-7.62l0 3.81c-7.96,1.86 -5.23,3.59 -15.24,3.81zm-41.9 -13.33l5.71 0 0 3.81c-5.57,-1.33 -2.74,0.25 -5.71,-3.81zm59.04 -5.71l13.33 0c5.36,0 3.53,0.82 5.71,3.81l-24.76 0c2.23,-3.21 0.27,-3.81 5.71,-3.81zm-40 0c12.81,0.29 9.54,6.48 20.95,9.52 -7.06,9.64 -9.64,-2.69 -20.95,-5.71l0 -3.81zm20.95 1.9c1.97,-7.39 2.57,-7.42 11.43,-7.62 -3.49,5.21 -3.56,6.96 -11.43,7.62zm-30.47 -7.62c2.06,-0.91 -0.59,-3.5 2.27,-0.03 2.03,2.46 0.52,0 1.54,3.84 -7.39,-1.97 -3.74,-3.68 -3.81,-3.81zm22.85 -3.81c0,-5.17 6.81,-0 1.71,0.1 -1.92,0.04 -1.71,4.23 -1.71,-0.1zm45.71 -7.62l0 3.81 -28.57 0c3.94,-5.37 1.42,-3.78 11.24,-3.99 5.51,-0.12 11.7,0.18 17.33,0.18zm-38.09 -5.71c2.02,-2.02 7.22,3.02 2.12,0.99 -0.04,-0.02 -5.31,2.2 -2.12,-0.99zm-17.14 -19.05c2.06,-0.91 -0.59,-3.5 2.27,-0.03 2.03,2.46 0.52,0 1.54,3.84 -7.39,-1.97 -3.74,-3.68 -3.81,-3.81zm60.95 11.43c-15.41,0 -14.17,2.45 -22.41,-6.16 -7.02,-7.33 -7.98,-7.17 -21.4,-7.17 3.53,-4.89 4.38,-2.85 9.5,-2.81 16.51,0.13 9.11,3.48 21.91,9.49 7.63,3.58 8.07,0.73 12.4,6.65zm-52.38 -19.05l-2.86 0 2.86 0 0 0zm31.43 -3.81c0.02,-0.01 49.45,-10.4 51.42,13.33 -23.54,-1.96 -39.35,3.15 -51.42,-13.33zm-10.47 -7.62l2.86 0 -2.86 0 0 0zm20 -5.71c25.45,0 38.44,-3.89 47.97,9.17 2.93,4.03 6.89,11.27 9.17,15.59 -14.46,-1.2 -4.37,-12.01 -22.95,-18.95 -9.22,-3.44 -27.43,-2 -39.9,-2 2.23,-3.21 0.27,-3.81 5.71,-3.81zm-15.24 -5.71l3.81 0 0 5.71c-7.3,-5.07 -0.8,0.01 -3.81,-5.71zm133.33 87.61c1.71,-7.74 2.13,-4.51 2.17,-11.92 0.02,-4.03 -0.07,-6.33 -0.19,-11.43 -0.12,-5.24 -0.92,-17.89 0.89,-24.76l10.3 -3.31c-7.18,-3.13 -1.32,1.91 -11.89,-2.89 -5.84,-2.65 -45.02,-0.92 -52.71,-0.92 -10.69,-15.97 -11.11,-32.12 -32.52,-34.27 -15.61,-1.57 -11.26,-0.58 -24.59,0.04 -20,0.92 -10.86,-5.76 -28.59,-5.76 -8.65,16.34 -11.17,13.03 -11.43,24.76 -17.07,-11.43 -13.25,-10.38 -25.49,8.98 -6.88,10.88 3.59,15.17 8.35,17.69 10.05,-5.32 9.3,-9.18 20.7,-7.63 8.23,1.12 12.33,7.04 17.39,11.44 -22.58,0 -7.17,-5.71 -26.66,-5.71 -9.97,14.88 -11.22,13.63 -11.43,22.85 -10.35,-2.76 -3.94,-5.71 -20.95,-5.71l-8.91 14.15c-4.46,7.31 -0.35,11.01 3.2,16.32 14.56,0 7.42,-3 19.05,-5.71 -2.65,3.62 -0.21,-0.02 -2.79,2.92 -18.38,21 -12.71,24.8 -2.92,31.36 3.51,-1.86 8.83,-5.83 12.24,-6.8 6.09,-1.74 14.79,-1.04 18.8,-2.15 16.86,-4.68 -3.37,-8.38 31.8,-8.19l60.47 -0.71c7.7,-2.58 4.85,1.13 -1.42,-10.72l57.15 -1.9z"/>
   <path class="fil5" d="M475.58 404.01c8.89,1.18 9.02,-1.28 8.58,-9.3l1.15 -243.74c0.05,-3.2 -1.07,-20.52 0.67,-31.24 -1.24,-8.66 -2.3,-15.79 2.15,-23.37 6.27,-0.34 0.68,1.9 3.83,1.64 10.56,-0.86 9.31,3.28 9.3,-7.56 4.23,4.13 3.16,-4.57 4.02,7.62l2.1 -2.35c4.46,-3.5 3.12,-2.14 9.33,-0.85 10.53,2.2 1.58,0.1 7.84,-1.58 10.35,-2.78 -0.8,25.99 8.17,36.14l-0.07 -26.65c0.44,-5 2.4,-9.9 3.29,-8.04 0.2,0.42 1.05,-0.38 1.33,-0.43l62.7 0.92c3.08,-3.07 0.71,-1.37 6.08,-1.46 0.36,-0.01 0.95,0.03 1.32,0.04 1.28,0.03 4.03,0.27 4.11,0.28l48.43 1.15c1.12,10.38 0.19,3.17 3.07,5.94l0.4 -12.43c20.03,3.3 0.29,-5.07 17.93,1.53 10.4,3.89 -7.46,1.76 2.02,0.44l3.46 -1.56c0.1,-0.01 0.59,-0.01 0.69,0 4.34,0.45 13.42,9.87 16.66,11.78 -2.74,-17.37 -13.36,-37.09 -24.68,-45.78 -18.25,-14.01 -26.6,-11.35 -57.21,-11.35 -46.34,0 -92.69,0 -139.03,0 0,9.64 1.84,10.64 -7.62,11.43l0 348.77z"/>
   <path class="fil6" d="M286.37 693.03l-2.08 -5.95c3.33,1.2 2.13,3.75 6.01,2.9 8.24,-1.8 -4.67,4.01 1.93,-1.21l1.97 -2.31c0.25,-0.28 0.62,-0.96 1,-1.38 0.59,7.56 -1.97,4.26 2.81,6.79 2.54,1.35 8.72,-1.6 12.63,-1.89 11.74,-0.9 2.99,4.42 13.63,0.5l23 -2.05c5.38,1.99 -2.27,3.08 16.07,-0.48l14.56 -0.73c0.1,0.02 0.56,0.11 0.66,0.13 10.4,2.1 6.14,-4.07 14.57,0.31 8.61,4.48 0.84,4.17 9.37,2.58 8.92,-1.66 -0.06,-1.4 8.46,0.57 10.15,2.34 10.66,-3.87 16.96,-0.23l6.09 4.14 5.37 -2.18c6.12,-6.91 8.77,-9.37 13.36,-18.3 3.14,-6.1 8.11,-14.87 10.54,-21.83 8.46,-24.25 6.23,-33.36 4.66,-60.08l-5.21 4.59c-4.23,1.95 -6.55,-0.04 -9,4.69l-2.4 -7.91c-0.34,0.37 -0.72,1.03 -0.89,1.23l-14.5 0.97c-5.9,0.06 2.23,3.39 -5.41,-0.33l-5.95 -6.07c-0.26,-0.32 -0.91,-0.51 -1.11,-1.32 -0.2,-0.83 -0.7,-0.95 -1.14,-1.34 2.44,13.94 5.72,19.55 4.55,33.13 -1.58,18.39 -11.42,30.29 -11.44,30.24 -0.11,-0.29 -0.54,0.7 -0.83,1.04 -5.4,6.46 -6.1,10.35 -13.25,15.42 -42.85,30.44 -97.68,11.26 -107.25,-45.35 -1.6,-9.47 0.51,-10.61 0.51,-25.19 -4.81,0.72 -6.59,0.85 -9.99,0.2l-15.87 -0.11c-9.31,0.67 -2.03,-4.56 -7.59,4.78 -0.82,-6.82 -1.59,-8.49 -5.76,-12.62 -1.78,2.35 -0.67,-1.22 -2.77,5.59 -7.71,25.01 6.35,83.76 33.71,99.05z"/>
   <path class="fil7" d="M405.52 338.58l0.14 23.92 -10.07 4.67 -50.29 33.92c-9.18,6.08 -15.38,11.49 -24.77,17.13 -4.9,2.94 -9.45,4.24 -13.77,7.19 -9.92,6.75 -3.74,8.57 -8.31,12.64 6.65,3.81 4.61,1.67 5.11,11.01 0.61,-0.19 1.42,-1.31 1.73,-0.8 0.3,0.48 1.25,-0.58 1.65,-0.73 10.29,-4.01 21.21,-4.13 31.6,-1.78l8.75 1.03c0.1,0.01 0.56,0.05 0.66,0.05l5.12 -1.11c7.37,-2.41 -3.3,-0.95 2.79,-0.47 11.36,0.89 13.16,-3.12 31.34,-15.94 15.09,-10.64 48.55,-35.3 59.81,-40.77l5.71 -0.01 0 -48.71c-5.93,-6.61 -9.12,-4.9 -18.76,-1.77 -14.92,4.84 -8.5,-2.93 -16.87,6.12l-5.34 -5.76c-1.25,-0.78 0.38,-1.71 -6.23,0.18z"/>
   <path class="fil8" d="M484.16 394.7c0.44,8.03 0.31,10.48 -8.58,9.3 -4.55,7.96 0.16,2.69 -7.44,7.54 -10.92,6.96 -60.41,38.3 -64.7,45.55 3.92,9.94 5.04,-1.39 28.36,-7.87l25.39 -5.08c5.39,-0.65 3.44,-3.67 9.94,-1.71l23.25 2.04c8.78,-1.03 0.32,3.53 8.06,1.2 4.37,-2.52 9.01,-5.2 13.2,-8.14 5.07,-3.55 6.9,-6.5 13.46,-5.19 3.13,-1.66 5.64,-3.67 9.52,-5.72 -4.82,-10.05 -1.9,-66.87 -1.9,-83.81 -1.96,-0.78 -3.59,-1.42 -5.41,-2.12l-15.1 -0.86c-7.53,0.61 -2.41,5.04 -12.13,2.54l-15.25 -7.56 -0.67 59.91z"/>
   <path class="fil9" d="M306.07 28.57c5.43,2.6 104.68,1.49 119.76,0.74 12.27,-0.61 10.52,1.17 17.37,1.17 10.66,0 13.05,-1.98 34.44,-1.33l64.6 1.33c7.28,0 0.69,0.58 5.71,-1.9 -4.36,-5.95 -15.84,-7.53 -24.02,-10.26 -57.71,-19.25 -134.6,-19.46 -192.41,-0.47 -9.78,3.21 -21.66,5.56 -25.45,10.73z"/>
   <path class="fil10" d="M286.37 693.03c5.41,7.85 17.6,15.69 29.17,21.03 40.38,18.62 98.39,6.18 118.47,-19.33l-6.09 -4.14c-6.3,-3.64 -6.81,2.57 -16.96,0.23 -8.52,-1.96 0.46,-2.23 -8.46,-0.57 -8.53,1.59 -0.76,1.9 -9.37,-2.58 -8.43,-4.38 -4.17,1.78 -14.57,-0.31 -0.1,-0.02 -0.56,-0.11 -0.66,-0.13l-14.56 0.73c-18.34,3.57 -10.69,2.47 -16.07,0.48l-23 2.05c-10.64,3.92 -1.89,-1.4 -13.63,-0.5 -3.91,0.3 -10.09,3.25 -12.63,1.89 -4.77,-2.54 -2.21,0.76 -2.81,-6.79 -0.39,0.42 -0.75,1.09 -1,1.38l-1.97 2.31c-6.6,5.22 6.31,-0.59 -1.93,1.21 -3.88,0.85 -2.68,-1.71 -6.01,-2.9l2.08 5.95z"/>
   <path class="fil11" d="M406.57 207.43l1.98 -3.87c1.75,5.92 3.39,6.48 6.11,11.63l11.43 -7.62c8.35,6.97 10.46,5.72 17.2,0.31 2.22,-1.78 1.95,0.34 3.74,-4.05 0.27,14.82 -1.28,10.92 5.7,13.29l0 -69.87c-6.06,-1.13 -1.62,-7.83 -8.6,-6.34 0.3,-0.44 0.75,-0.96 0.96,-1.27 6.15,-9.25 -1.97,8.1 3.16,-5.46 1.69,-4.47 1.01,-1.21 1.52,-7.41l-15.53 7.3c-3.5,7.35 4.04,1.62 -1.68,3.69 1.36,6.58 3.5,-1.28 -1.28,-0.59 -9.34,1.35 2.24,-0.69 -4.5,3.05 1.03,-1.11 3.2,5.73 1.05,-4.94 -0.05,-0.27 -0.27,-0.88 -0.38,-1.12 -1.51,-3.46 1.7,-3.45 -7.1,-1.92l-6.79 2.15c-2.62,-3.04 -4.35,-5.99 -6.45,-9.37l-0.54 82.42z"/>
   <path class="fil12" d="M403.44 457.09c-7.25,1.83 -15.92,9.54 -23.09,13.33l1.89 7.62 1.17 25.5c1.36,0.07 2.86,5.1 3.77,-7.56 2.84,9.77 8.59,-4.32 8.64,-4.36 4.28,-2.45 -2.56,-0.22 2.17,0.05 0.11,0.01 0.66,0.04 0.78,0.05 0.13,0.01 0.66,0.05 0.79,0.06 0.13,0.01 0.65,0.05 0.78,0.06l5.69 -0.33c5.59,-1.96 8.37,-6.91 1.35,5.17 -0.25,0.44 -0.7,1.08 -0.98,1.67l7.42 -1.64c12.31,-2.41 8.65,2.23 12.83,0.24l71.77 -51.27c-7.75,2.33 0.71,-2.23 -8.06,-1.2l-23.25 -2.04c-6.5,-1.96 -4.55,1.05 -9.94,1.71l-25.39 5.08c-23.32,6.48 -24.44,17.81 -28.36,7.87z"/>
   <path class="fil13" d="M405.88 296.12l-0.36 42.46c6.6,-1.89 4.98,-0.96 6.23,-0.18l5.34 5.76c8.37,-9.05 1.95,-1.28 16.87,-6.12 9.64,-3.13 12.83,-4.84 18.76,1.77l0 -49.6c-4.22,-8.27 -1.55,-18.26 -4.3,-27.39 -3.25,-4.68 1.22,-0.09 -5.49,0.05l-12.01 1.08c-0.34,0.11 -0.89,0.37 -1.21,0.46l-14.91 -0.43c-1.07,0.35 -1.78,7.65 -2.06,-4.8 -3.21,4.6 -1.4,5.76 -3.09,7.34l-0.72 -7.74c-0.18,0.44 -0.28,1.06 -0.34,1.38 -0.05,0.33 -0.24,1.01 -0.29,1.43 -1.23,9.11 0.54,24.88 -2.43,34.5z"/>
   <path class="fil14" d="M439.39 692.54l-5.37 2.18c-20.08,25.52 -78.08,37.96 -118.47,19.33 -11.58,-5.34 -23.76,-13.18 -29.17,-21.03 -27.36,-15.28 -41.42,-74.04 -33.71,-99.05 2.1,-6.81 0.99,-3.25 2.77,-5.59 0.03,-6.52 3.07,-11.78 1.12,-16.11 -21.01,33.31 -18.46,82.93 7.03,117.76 54.21,74.08 153.19,44.52 175.81,2.51z"/>
   <path class="fil15" d="M662.96 101.17c-2.2,11.71 1.52,35.63 -1.74,54.96 8.05,0 2.82,0.51 4.68,-1.96l3.05 4.63c4.73,4.12 6.44,1.56 10.92,4.62l3.07 3.34c0.23,0.28 0.52,0.94 0.83,1.37 0.42,-2.27 -2.04,-5.1 5.32,-6.89 2.46,-0.6 4.61,-0.76 9.66,4.41 0.35,0.36 0.75,0.86 1.08,1.21 0.38,0.41 1.8,2.28 2.31,2.66 0.28,-9.56 1.59,-9.69 3.12,-17.93 1.44,-7.72 1.69,-15.81 1.76,-18.86 0.03,-1.12 0.86,-23.35 -2.89,-31.78 -3.24,-1.91 -12.32,-11.33 -16.66,-11.78 -0.1,-0.01 -0.59,-0.01 -0.69,-0l-3.46 1.56c-9.48,1.32 8.38,3.45 -2.02,-0.44 -17.65,-6.6 2.09,1.77 -17.93,-1.53l-0.4 12.43z"/>
   <path class="fil16" d="M484.61 298.54l6.4 0.25c-2.11,5.46 -2.52,2.36 3.41,7.65 3.44,-7.85 -3.95,-2.27 4.2,-7.62 1.44,4.69 -0.28,1.98 1.39,5.21 1.21,2.35 2.6,3.06 4.6,5.95 6.73,-7.67 1.93,-4.03 10.74,-2.14 5.25,1.13 3.15,-6.14 17.36,-1.21l0 -51.42c-5.24,-3.85 -3.16,-0.28 -2.42,-7.23 -0.57,0.28 -2.89,1.73 -3.25,1.87 -6.94,2.61 -1.1,-0.08 -8.81,-2.84 -0.12,-0.04 -0.63,-0.13 -0.75,-0.15 -0.11,-0.02 -0.59,-0.03 -0.7,-0.04 -0.1,-0.01 -0.56,0.04 -0.66,0.03 -12.67,-0.17 -8.81,2.45 -12.68,-0.78 -3.24,-2.71 -2.24,-2.06 -4.25,-4.95 -7.74,3.4 1.49,-0.62 -4.36,2.64 -3.99,2.23 -2.64,1.93 -9.2,-0.83l-1.03 55.61z"/>
   <path class="fil17" d="M406.57 207.43l-0.69 88.69c2.98,-9.62 1.21,-25.39 2.43,-34.5 0.06,-0.42 0.24,-1.11 0.29,-1.43 0.05,-0.32 0.15,-0.95 0.34,-1.38l0.72 7.74c1.69,-1.58 -0.12,-2.74 3.09,-7.34 0.28,12.45 0.98,5.15 2.06,4.8l14.91 0.43c0.32,-0.09 0.87,-0.35 1.21,-0.46l12.01 -1.08c6.7,-0.14 2.23,-4.73 5.49,-0.05 2.75,9.13 0.07,19.12 4.3,27.39l0 -73.11c-6.98,-2.36 -5.43,1.53 -5.7,-13.29 -1.78,4.39 -1.51,2.27 -3.74,4.05 -6.74,5.41 -8.85,6.67 -17.2,-0.31l-11.43 7.62c-2.72,-5.15 -4.36,-5.71 -6.11,-11.63l-1.98 3.87z"/>
   <path class="fil15" d="M485.98 119.72c5.56,2.76 2.75,2.52 5,0.43 -0.23,0.61 -0.5,0.84 -0.55,1.88 -0.67,13.9 -1.72,-0.1 2.27,15.25 0.07,0.26 0.15,0.81 0.2,1.06 2.43,11.34 1.69,2.87 9.18,10.56 11.93,12.24 13.71,-6.88 23.01,-10.54 4.88,9.66 -1.04,-1.8 1.56,5.41 1.82,5.03 -2.15,4.63 6.06,5.68l0 -20.06c-8.97,-10.15 2.18,-38.92 -8.17,-36.14 -6.25,1.68 2.7,3.78 -7.84,1.58 -6.21,-1.3 -4.87,-2.65 -9.33,0.85l-2.1 2.35c-0.85,-12.19 0.22,-3.49 -4.02,-7.62 0.01,10.84 1.26,6.69 -9.3,7.56 -3.15,0.26 2.44,-1.98 -3.83,-1.64 -4.45,7.58 -3.4,14.71 -2.15,23.37z"/>
   <path class="fil18" d="M303.77 578.99c12.02,-7.08 21.43,-17.01 38.69,-18.85 23.04,-2.46 32.85,1.85 46.66,10.08 6.94,4.14 10.17,7.25 14.94,13.63 23.18,31.01 12.44,45.51 10.58,67.41 0.29,-0.34 0.72,-1.33 0.83,-1.04 0.02,0.05 9.86,-11.85 11.44,-30.24 1.17,-13.59 -2.11,-19.19 -4.55,-33.13 -11.08,-19.92 -26.39,-37.31 -56.87,-39.2 -26.87,-1.67 -56.12,14.04 -61.71,31.35z"/>
   <path class="fil19" d="M484.82 334.8l15.25 7.56c9.72,2.5 4.6,-1.92 12.13,-2.54l15.1 0.86c1.82,0.7 3.45,1.35 5.41,2.12l0 -36.19c-14.21,-4.92 -12.11,2.34 -17.36,1.21 -8.81,-1.89 -4.01,-5.53 -10.74,2.14 -2,-2.89 -3.39,-3.6 -4.6,-5.95 -1.66,-3.23 0.05,-0.52 -1.39,-5.21 -8.15,5.35 -0.76,-0.24 -4.2,7.62 -5.93,-5.29 -5.52,-2.19 -3.41,-7.65l-6.4 -0.25 0.21 36.26z"/>
   <path class="fil20" d="M601.28 108.56c4.34,6.48 12.33,11.32 21.43,20.47l20.47 21.43c3.82,-6.79 1.9,-29.19 1.9,-38.09 0,-11.79 -43.79,-3.82 -43.8,-3.81z"/>
  </g>
 </g>
</svg>
